<?xml version="1.0" standalone="no"?>
<!DOCTYPE svg PUBLIC "-//W3C//DTD SVG 1.1//EN" "http://www.w3.org/Graphics/SVG/1.1/DTD/svg11.dtd" >
<!--
2016-7-4: Created.
-->
<svg xmlns="http://www.w3.org/2000/svg">
<metadata>
Created by FontForge 20120731 at Mon Jul  4 22:43:34 2016
 By Apache
Created by Apache with FontForge 2.0 (http://fontforge.sf.net)
</metadata>
<defs>
<font id="Flaticon" horiz-adv-x="512" >
  <font-face 
    font-family="Flaticon"
    font-weight="500"
    font-stretch="normal"
    units-per-em="512"
    panose-1="2 0 6 3 0 0 0 0 0 0"
    ascent="448"
    descent="-64"
    bbox="-0.0507076 -64.0012 512.002 448.001"
    underline-thickness="25.6"
    underline-position="-51.2"
    unicode-range="U+0020-F123"
  />
    <missing-glyph />
    <glyph glyph-name="space" unicode=" " horiz-adv-x="200" 
 />
    <glyph glyph-name="uniF109" unicode="&#xf109;" 
d="M256 448c141.376 0 256 -114.624 256 -256s-114.624 -256 -256 -256s-256 114.624 -256 256s114.624 256 256 256zM256 28.5869c20.5439 0 33.707 15.4023 33.707 35.4131c0 20.5654 -13.1631 35.4131 -33.707 35.4131c-19.4346 0 -33.707 -14.8477 -33.707 -35.4131
c0 -19.9893 13.6963 -35.4131 33.707 -35.4131zM269.27 163.818c5.31152 18.0908 28.3945 97.5146 28.416 148.097c0 66.666 -83.0078 66.3467 -83.0078 0c0 -50.2832 21.9092 -127.702 28.0742 -148.097c5.35449 -17.6855 21.4189 -17.3867 26.5176 0z" />
    <glyph glyph-name="uniF100" unicode="&#xf100;" 
d="M47.4258 179.166c-3.71973 1.47852 -6.65527 4.38086 -8.22363 8.05566l-37.9805 88.7451c-2.39844 5.60156 -1.17676 12.0889 3.08008 16.4473c4.24707 4.35742 10.7109 5.72461 16.3691 3.4502l22.083 -8.85059c35.7734 86.5039 119.555 143.273 214.596 143.273
c94.9072 0 178.924 -58.54 214.373 -142.982c4.8623 -11.5957 4.25684 -24.7607 -1.6582 -35.8516c-5.89355 -11.0811 -16.5029 -18.9238 -28.8496 -21.3213l-3.03613 -0.582031c-19.3604 -3.75391 -38.6865 6.58691 -46.3613 24.7373
c-22.3291 52.8818 -75.0312 89.5293 -134.501 89.5293c-59.2119 0 -111.758 -36.0645 -134.243 -88.9912l24.29 -9.73633c5.64648 -2.2627 9.37695 -7.71973 9.45508 -13.8027c0.0673828 -6.08398 -3.52832 -11.6299 -9.11914 -14.0156l-88.7559 -37.9697
c-3.66406 -1.56836 -7.80957 -1.61328 -11.5176 -0.134766zM510.778 108.045c2.40918 -5.60156 1.17676 -12.1006 -3.03613 -16.4473c-4.24609 -4.36914 -10.71 -5.73633 -16.3574 -3.46191l-22.0938 8.85059c-35.7617 -86.5146 -119.555 -143.273 -214.597 -143.273
c-94.9287 0 -178.935 58.54 -214.405 143.005c-4.86328 11.585 -4.26953 24.749 1.64648 35.8408c5.9043 11.0801 16.5146 18.9229 28.8496 21.3203l3.04785 0.583008c19.3369 3.75293 38.6748 -6.58789 46.3496 -24.7383
c22.3291 -52.8809 75.0312 -89.5283 134.501 -89.5283c59.2119 0 111.746 36.0527 134.243 88.9912l-24.3008 9.73535c-5.64648 2.25195 -9.37793 7.71973 -9.45605 13.8037c-0.0673828 6.08301 3.5293 11.6182 9.13086 14.0049l88.7559 37.9688
c3.66406 1.56836 7.79785 1.61328 11.5068 0.134766c3.70801 -1.47852 6.65527 -4.38086 8.24609 -8.05566z" />
    <glyph glyph-name="uniF122" unicode="&#xf122;" 
d="M400.059 5.72754h-82.7529h-22.2832h-4.8125v111h36.3027c9.20605 0 14.6465 10.4619 9.20605 17.9941l-70.6172 97.7129c-4.49805 6.27734 -13.8096 6.27734 -18.3076 0l-70.6172 -97.7129c-5.44043 -7.53223 -0.104492 -17.9941 9.20605 -17.9941h36.3027v-111h-4.8125
h-22.2842h-95.9346c-54.9238 3.03418 -98.6543 54.4014 -98.6543 110.059c0 38.3945 20.8193 71.8721 51.6816 89.9707c-2.8252 7.6377 -4.29004 15.7979 -4.29004 24.376c0 39.2324 31.6992 70.9316 70.9316 70.9316c8.47363 0 16.6338 -1.46484 24.2705 -4.29004
c22.7021 48.125 71.6641 81.498 128.576 81.498c73.6504 -0.104492 134.329 -56.4941 141.233 -128.366c56.5986 -9.72949 99.5967 -62.1436 99.5967 -121.462c0 -63.3984 -49.3799 -118.322 -111.941 -122.717z" />
    <glyph glyph-name="uniF123" unicode="&#xf123;" 
d="M506.583 17.0811c6.9082 -12.1299 7.22754 -25.9854 0.855469 -36.9424c-6.36914 -10.957 -18.5068 -17.6426 -32.4648 -17.6426h-437.947c-13.958 0 -26.0957 6.68555 -32.4648 17.6426c-6.37207 10.957 -6.05078 24.8838 0.855469 37.0137l219.157 384.845
c6.95312 12.2139 18.7031 19.5068 31.4268 19.5068s24.4717 -7.3291 31.4268 -19.543zM254.555 298.339c-16.7744 0 -30.373 -13.5986 -30.373 -30.373v-109.345c0 -16.7744 13.5986 -30.373 30.373 -30.373c16.7754 0 30.374 13.5986 30.374 30.373v109.345
c0 16.7744 -13.5986 30.373 -30.374 30.373zM256.001 93.9238c-16.7754 0 -30.373 -13.5977 -30.373 -30.373c0 -16.7744 13.5986 -30.373 30.373 -30.373s30.373 13.5986 30.373 30.373c0 16.7754 -13.5986 30.373 -30.373 30.373z" />
    <glyph glyph-name="uniF11B" unicode="&#xf11b;" 
d="M256 448c141.964 0 256 -114.036 256 -256s-114.036 -256 -256 -256s-256 114.036 -256 256s114.036 256 256 256zM162.909 87.2725v23.2734c0 6.98145 -4.6543 11.6357 -11.6367 11.6357h-23.2725c-6.98145 0 -11.6367 -4.6543 -11.6367 -11.6357v-23.2734
c0 -6.98145 4.65527 -11.6357 11.6367 -11.6357h23.2725c6.98242 0 11.6367 4.6543 11.6367 11.6357zM162.909 180.363v23.2734c0 6.98145 -4.6543 11.6357 -11.6367 11.6357h-23.2725c-6.98145 0 -11.6367 -4.6543 -11.6367 -11.6357v-23.2734
c0 -6.98145 4.65527 -11.6357 11.6367 -11.6357h23.2725c6.98242 0 11.6367 4.6543 11.6367 11.6357zM162.909 273.454v23.2734c0 6.98145 -4.6543 11.6357 -11.6367 11.6357h-23.2725c-6.98145 0 -11.6367 -4.6543 -11.6367 -11.6357v-23.2734
c0 -6.98145 4.65527 -11.6357 11.6367 -11.6357h23.2725c6.98242 0 11.6367 4.6543 11.6367 11.6357zM395.637 87.2725v23.2734c0 6.98145 -4.65527 11.6357 -11.6367 11.6357h-162.909c-6.98145 0 -11.6367 -4.6543 -11.6367 -11.6357v-23.2734
c0 -6.98145 4.65527 -11.6357 11.6367 -11.6357h162.909c6.98145 0 11.6367 4.6543 11.6367 11.6357zM395.637 180.363v23.2734c0 6.98145 -4.65527 11.6357 -11.6367 11.6357h-162.909c-6.98145 0 -11.6367 -4.6543 -11.6367 -11.6357v-23.2734
c0 -6.98145 4.65527 -11.6357 11.6367 -11.6357h162.909c6.98145 0 11.6367 4.6543 11.6367 11.6357zM395.637 273.454v23.2734c0 6.98145 -4.65527 11.6357 -11.6367 11.6357h-162.909c-6.98145 0 -11.6367 -4.6543 -11.6367 -11.6357v-23.2734
c0 -6.98145 4.65527 -11.6357 11.6367 -11.6357h162.909c6.98145 0 11.6367 4.6543 11.6367 11.6357z" />
    <glyph glyph-name="uniF105" unicode="&#xf105;" 
d="M256 448c141.964 0 256 -114.036 256 -256s-114.036 -256 -256 -256s-256 114.036 -256 256s114.036 256 256 256zM293.236 187.346c-2.32715 2.32715 -2.32715 6.98145 0 8.14551l87.2725 87.2725c2.32715 2.32715 3.49121 5.81836 3.49121 8.14551
s-1.16406 5.81836 -3.49121 8.14551l-16.291 16.291c-2.32715 2.32715 -4.6543 3.49023 -8.14551 3.49023c-2.32715 0 -5.81738 -1.16309 -8.14453 -3.49023l-87.2734 -87.2734c-2.32715 -2.32715 -5.81836 -2.32715 -8.14551 0l-87.2725 87.2734
c-2.32715 2.32715 -5.81836 3.49023 -8.14551 3.49023s-5.81836 -1.16309 -8.14551 -3.49023l-16.291 -16.291c-2.32715 -2.32715 -3.49023 -5.81836 -3.49023 -8.14551s1.16309 -5.81836 3.49023 -8.14551l87.2734 -87.2725c2.32715 -2.32715 2.32715 -5.81836 0 -8.14551
l-87.2734 -87.2734c-2.32715 -2.32715 -3.49023 -5.81738 -3.49023 -8.14453c0 -2.32812 1.16309 -5.81836 3.49023 -8.14551l16.291 -16.291c2.32715 -2.32715 4.6543 -3.49121 8.14551 -3.49121c2.32715 0 5.81836 1.16406 8.14551 3.49121l87.2725 87.2725
c2.32715 2.32715 5.81836 2.32715 8.14551 0l87.2734 -87.2725c2.32715 -2.32715 4.6543 -3.49121 8.14453 -3.49121c2.32812 0 5.81836 1.16406 8.14551 3.49121l16.291 16.291c2.32715 2.32715 3.49121 5.81738 3.49121 8.14551
c0 2.32715 -1.16406 5.81738 -3.49121 8.14453z" />
    <glyph glyph-name="uniF104" unicode="&#xf104;" 
d="M125.115 326.235c-11.1318 0 -20.1553 9.02637 -20.1553 20.1553v55.6211v20.8057c0 11.1289 9.02344 20.1553 20.1553 20.1553h7.32422c11.1328 0 20.1562 -9.02637 20.1562 -20.1553v-20.8047v-55.6221c0 -11.1289 -9.02344 -20.1553 -20.1562 -20.1553h-7.32422z
M383.641 326.734c-11.1309 0 -20.1543 9.02637 -20.1572 20.1572v60.3994v16.0273c0 11.1279 9.02441 20.1533 20.1572 20.1533h7.3252c11.1309 0 20.1543 -9.02539 20.1543 -20.1533v-16.0273v-60.4004c0 -11.1299 -9.02344 -20.1562 -20.1543 -20.1562h-7.3252z
M479.234 402.013c18.0674 0 32.7676 -14.7012 32.7656 -32.7686v-395.947c0 -18.0693 -14.6982 -32.7686 -32.7656 -32.7686h-446.468c-18.0674 0 -32.7666 14.6992 -32.7666 32.7686v395.947c0 18.0684 14.6992 32.7686 32.7666 32.7686h55.8105v-55.6211
c0 -20.1484 16.3916 -36.54 36.5391 -36.54h7.32422c20.1484 0 36.54 16.3916 36.54 36.54v55.6211h178.123v-55.1211c0 -20.1484 16.3906 -36.541 36.5391 -36.541h7.3252c20.1465 0 36.5371 11.1133 36.5371 31.2617v60.4004h51.7295zM479.234 -26.7031
c0.0146484 0 0.0205078 0.000976562 0.0224609 0.000976562l-0.0166016 299.008h-446.474l0.00195312 -299.009h446.466zM272.916 172.01c-2.33203 0 -4.22266 1.89062 -4.22266 4.22266v50.9463c0 2.33301 1.89062 4.22363 4.22266 4.22363h58.835
c2.33301 0 4.22363 -1.89062 4.22363 -4.22363v-50.9463c0 -2.33203 -1.89062 -4.22266 -4.22363 -4.22266h-58.835zM368.934 172.01c-2.33203 0 -4.22266 1.89062 -4.22266 4.22266v50.9463c0 2.33301 1.89062 4.22363 4.22266 4.22363h58.8359
c2.33203 0 4.22266 -1.89062 4.22266 -4.22363v-50.9463c0 -2.33203 -1.89062 -4.22266 -4.22266 -4.22266h-58.8359zM80.8838 88.6035c-2.33203 0 -4.22266 1.89062 -4.22266 4.22266v50.9473c0 2.33203 1.89062 4.22363 4.22266 4.22363h58.835
c2.33203 0 4.22266 -1.8916 4.22266 -4.22363v-50.9473c0 -2.33203 -1.89062 -4.22266 -4.22266 -4.22266h-58.835zM176.9 88.6035c-2.33203 0 -4.22266 1.89062 -4.22266 4.22266v50.9473c0 2.33203 1.89062 4.22363 4.22266 4.22363h58.834
c2.33301 0 4.22363 -1.8916 4.22363 -4.22363v-50.9473c0 -2.33203 -1.89062 -4.22266 -4.22363 -4.22266h-58.834zM272.917 88.6035c-2.33203 0 -4.22266 1.89062 -4.22266 4.22266v50.9473c0 2.33203 1.89062 4.22363 4.22266 4.22363h58.834
c2.33301 0 4.22363 -1.8916 4.22363 -4.22363v-50.9473c0 -2.33203 -1.89062 -4.22266 -4.22363 -4.22266h-58.834zM368.934 88.6035c-2.33203 0 -4.22266 1.89062 -4.22266 4.22266v50.9473c0 2.33203 1.89062 4.22363 4.22266 4.22363h58.8359
c2.33203 0 4.22266 -1.8916 4.22266 -4.22363v-50.9473c0 -2.33203 -1.89062 -4.22266 -4.22266 -4.22266h-58.8359zM139.719 64.5908c2.33203 0 4.22266 -1.8916 4.22363 -4.22363v-50.9473c0 -2.33203 -1.89062 -4.22363 -4.22266 -4.22363h-58.835
c-2.33203 0 -4.22266 1.8916 -4.22266 4.22363v50.9473c0 2.33203 1.89062 4.22363 4.22266 4.22363h58.834zM235.736 64.5908c2.33203 0 4.22266 -1.8916 4.22266 -4.22363v-50.9473c0 -2.33203 -1.89062 -4.22363 -4.22266 -4.22363h-58.835
c-2.33203 0 -4.22266 1.8916 -4.22266 4.22363v50.9473c0 2.33203 1.89062 4.22363 4.22266 4.22363h58.835zM331.754 64.5908c2.33203 0 4.22266 -1.8916 4.22266 -4.22363v-50.9473c0 -2.33203 -1.89062 -4.22363 -4.22266 -4.22363h-58.8359
c-2.33203 0 -4.22266 1.8916 -4.22266 4.22363v50.9473c0 2.33203 1.89062 4.22363 4.22266 4.22363h58.8359zM427.77 64.5908c2.33203 0 4.22266 -1.8916 4.22266 -4.22363v-50.9473c0 -2.33203 -1.89062 -4.22363 -4.22266 -4.22363h-58.8359
c-2.33203 0 -4.22266 1.8916 -4.22266 4.22363v50.9473c0 2.33203 1.89062 4.22363 4.22266 4.22363h58.8359z" />
    <glyph glyph-name="uniF11F" unicode="&#xf11f;" 
d="M383.999 256c0 -106.029 -85.9668 -191.996 -191.998 -191.996c-106.029 0 -192 85.9668 -192 191.996s85.9707 192 192 192c106.031 0 191.998 -85.9707 191.998 -192zM192.001 112.005c79.4043 0 144.002 64.5879 144.002 143.994s-64.5977 143.999 -144.002 143.999
c-79.4062 0 -143.999 -64.5928 -143.999 -143.999s64.5928 -143.994 143.999 -143.994zM497.933 17.9326c18.7539 -18.748 18.7539 -49.1533 -0.000976562 -67.8721c-18.7129 -18.749 -49.1182 -18.749 -67.8721 0l-117.47 117.47
c27.2197 17.5029 50.3809 40.6533 67.8828 67.8721z" />
    <glyph glyph-name="uniF106" unicode="&#xf106;" 
d="M256 448c141.964 0 256 -114.036 256 -256s-114.036 -256 -256 -256s-256 114.036 -256 256s114.036 256 256 256zM403.782 272.291c4.6543 4.6543 4.6543 11.6367 0 15.127l-16.291 16.291c-4.65527 4.6543 -11.6367 4.6543 -16.291 0h-1.16406l-155.927 -161.745
c-2.32715 -2.32715 -5.81836 -2.32715 -8.14551 0l-64 68.6543l-1.16406 1.16406c-4.6543 4.6543 -11.6357 4.6543 -16.291 0l-16.291 -16.291c-2.32715 -2.32715 -3.49023 -5.81836 -3.49023 -8.14551s1.16309 -5.81836 3.49023 -8.14551l2.32812 -2.32715
l90.7627 -97.7461c1.16406 -2.32715 4.65527 -3.49023 8.14551 -3.49023c3.49121 0 5.81836 1.16309 8.14551 3.49023l186.183 193.164v0z" />
    <glyph glyph-name="uniF10E" unicode="&#xf10e;" 
d="M424.846 241.233c15.376 0 27.917 -15.8662 27.917 -35.459v-234.189c0 -19.5713 -12.542 -35.585 -27.917 -35.585h-337.692c-15.376 0 -27.917 16.0137 -27.917 35.585v234.189c0 19.5938 12.541 35.459 27.916 35.459h9.97656v46.6924
c0 86.3604 68.5322 158.503 154.192 160.043c2.33984 0.0419922 7.0166 0.0419922 9.35742 0c85.6582 -1.54004 154.191 -73.6826 154.191 -160.043v-46.6924h9.97559zM287.637 88.917c7.86523 7.74219 12.4443 18.4482 12.4463 30.29
c0 22.4414 -17.3467 41.7256 -39.4033 42.6162c-2.33789 0.0947266 -7.01953 0.0947266 -9.35742 0c-22.0557 -0.890625 -39.4033 -20.1748 -39.4033 -42.6162c0 -11.8418 4.5791 -22.5479 12.4443 -30.29v-70.7627c0 -8.10254 6.78418 -14.96 14.8936 -14.96h33.4873
c8.1084 0 14.8926 6.85742 14.8926 14.96v70.7627zM349.114 241.233l0.000976562 46.6924c0 51.4434 -41.8086 93.9795 -93.1162 93.9795c-51.3066 0 -93.1133 -42.5361 -93.1133 -93.9795v-46.6924h88.4355h9.35742h88.4355z" />
    <glyph glyph-name="uniF110" unicode="&#xf110;" 
d="M256 448c141.385 0 256 -114.615 256 -256s-114.615 -256 -256 -256s-256 114.615 -256 256s114.615 256 256 256zM132.22 152.615c21.7168 0 39.3848 17.668 39.3848 39.3848s-17.668 39.3848 -39.3848 39.3848s-39.3848 -17.668 -39.3848 -39.3848
s17.668 -39.3848 39.3848 -39.3848zM256 152.615c21.7168 0 39.3848 17.668 39.3848 39.3848s-17.668 39.3848 -39.3848 39.3848s-39.3848 -17.668 -39.3848 -39.3848s17.668 -39.3848 39.3848 -39.3848zM379.78 152.615c21.7168 0 39.3848 17.668 39.3848 39.3848
s-17.668 39.3848 -39.3848 39.3848s-39.3848 -17.668 -39.3848 -39.3848s17.668 -39.3848 39.3848 -39.3848z" />
    <glyph glyph-name="uniF10D" unicode="&#xf10d;" 
d="M256 448c141.387 0 256 -114.617 256 -256c0 -141.391 -114.613 -256 -256 -256s-256 114.609 -256 256c0 141.383 114.613 256 256 256zM256 320c-17.6738 0 -32 -14.3281 -32 -32c0 -17.6797 14.3262 -32 32 -32s32 14.3203 32 32c0 17.6719 -14.3262 32 -32 32z
M304 64c8.83594 0 16 7.15625 16 16c0 8.83594 -7.16406 16 -16 16h-16v112c0 8.83594 -7.16406 16 -16 16h-64c-8.83594 0 -16 -7.16406 -16 -16c0 -8.84375 7.16406 -16 16 -16h16v-96h-16c-8.83594 0 -16 -7.16406 -16 -16c0 -8.84375 7.16406 -16 16 -16h96z" />
    <glyph glyph-name="uniF114" unicode="&#xf114;" 
d="M49.1416 269.141c-11.8076 7.99902 -22.9531 19 -33.4268 33c-10.4746 13.999 -15.7148 27.0029 -15.7148 39.002c0 14.8564 3.95215 27.2373 11.8555 37.1426c7.90527 9.90332 19.1914 14.8545 33.8564 14.8545h420.572c12.3779 0 23.0938 -4.47363 32.1406 -13.4277
c9.04883 -8.95117 13.5752 -19.7139 13.5752 -32.2871c0 -15.0459 -4.66406 -29.4277 -14.0029 -43.1367c-9.33203 -13.7148 -20.9482 -25.4316 -34.8525 -35.1416c-71.6162 -49.7168 -116.192 -80.6699 -133.713 -92.8584
c-1.9043 -1.33594 -5.95508 -4.23535 -12.1436 -8.71582c-6.19238 -4.47949 -11.333 -8.09863 -15.4287 -10.8604c-4.0957 -2.75879 -9.04785 -5.85156 -14.8555 -9.2832c-5.80566 -3.42188 -11.2871 -6.00098 -16.4287 -7.70605
c-5.14355 -1.71777 -9.90723 -2.57031 -14.2871 -2.57031h-0.288086h-0.287109c-4.37988 0 -9.1416 0.851562 -14.2852 2.57031c-5.14355 1.70508 -10.6201 4.28125 -16.4307 7.70605c-5.81152 3.42773 -10.7637 6.52344 -14.8594 9.2832
c-4.09277 2.76172 -9.2373 6.38086 -15.4277 10.8604c-6.18945 4.47656 -10.2354 7.37988 -12.1396 8.71582c-17.334 12.1885 -42.2861 29.5674 -74.8574 52.1377s-52.0947 36.1445 -58.5713 40.7148zM483.425 238.572c10.8633 7.42578 20.3838 15.7168 28.5762 24.8555
v-226.851c0 -12.5801 -4.47266 -23.333 -13.4277 -32.2881c-8.95215 -8.95605 -19.7158 -13.4316 -32.2842 -13.4316h-420.573c-12.5723 0 -23.3369 4.47559 -32.2881 13.4316c-8.95312 8.95215 -13.4277 19.709 -13.4277 32.2881v226.851
c8.38086 -9.33105 18 -17.6221 28.8604 -24.8555c68.9512 -46.8555 116.283 -79.7178 141.999 -98.5732c10.8564 -7.99707 19.667 -14.2393 26.4268 -18.7129c6.76172 -4.47559 15.7637 -9.04785 27 -13.7119c11.2363 -4.6709 21.7139 -7 31.4277 -7h0.287109h0.291016
c9.71582 0 20.1875 2.3291 31.4238 7c11.2402 4.66406 20.2363 9.23633 27 13.7119c6.76367 4.47363 15.5713 10.7158 26.4287 18.7129c32.376 23.4307 79.8105 56.291 142.28 98.5732z" />
    <glyph glyph-name="uniF103" unicode="&#xf103;" 
d="M504.497 20.2217c10.0049 -10.0059 10.002 -26.2256 0.00195312 -36.2295c-10.0068 -10.0029 -26.2266 -10.0049 -36.2305 0l-41.6172 41.6172c-4.59375 4.59277 -7.07324 10.4951 -7.44824 16.5049l-14.1387 14.1357
c-33.3828 -21.001 -78.1162 -16.9844 -107.159 12.0596c-33.7119 33.7119 -33.7119 88.5645 -0.00488281 122.276c33.7148 33.7119 88.5654 33.7129 122.277 0c29.043 -29.042 33.0615 -73.7754 12.0596 -107.164l14.1377 -14.1357
c6.00684 -0.378906 11.9092 -2.85547 16.5039 -7.44727zM402.066 86.4219c23.7197 23.7227 23.7197 62.3232 0 86.0449c-23.7295 23.7246 -62.3271 23.7246 -86.0479 0.00195312c-23.7207 -23.7256 -23.7207 -62.3242 0 -86.0469
c23.7256 -23.7207 62.3252 -23.7207 86.0479 0zM283.439 203.7c-40.9443 -40.9443 -40.9443 -107.567 0.00390625 -148.512c2.23535 -2.23828 4.56836 -4.34668 6.9668 -6.35352c-14.9824 -5.47461 -29.502 -12.9131 -43.2422 -22.25
c-2.35352 -1.60449 -5.10547 -2.39844 -7.85938 -2.36328c-0.0166016 0 -0.0322266 -0.00195312 -0.046875 -0.00195312c-2.68555 0 -5.36914 0.793945 -7.66992 2.3623c-32.1318 21.8281 -68.4893 33.3711 -105.135 33.3711c-36.6436 0 -72.9941 -11.543 -105.114 -33.3682
c-4.18848 -2.84277 -9.59863 -3.14355 -14.0732 -0.774414c-4.47363 2.37109 -7.26953 7.01562 -7.26953 12.0781v320.23c0 4.52148 2.23926 8.75391 5.98242 11.2988c36.6699 24.9199 78.3301 38.0938 120.47 38.0938c39.2734 0 78.1309 -11.4434 112.927 -33.168
c34.7842 21.7246 73.6318 33.168 112.906 33.168c42.1504 0 83.8105 -13.1748 120.49 -38.0938c3.74512 -2.54395 5.98438 -6.77539 5.98438 -11.2988v-287.27l-4.10742 4.10938c-5.71582 5.71094 -12.8779 9.74219 -20.7207 11.6621l-0.25293 0.25293
c7.43359 16.8457 10.3398 35.4111 8.40332 53.71c-2.51953 23.793 -13.2168 46.207 -30.1289 63.1162c-19.8105 19.8096 -46.1816 30.7188 -74.2568 30.7188c-28.0762 0 -54.4463 -10.9102 -74.2568 -30.7188zM278.915 315.424
c-6.30469 -4.3125 -7.9248 -12.9209 -3.61426 -19.2275c2.68164 -3.91992 7.01953 -6.02734 11.4346 -6.02734c2.68848 0 5.4082 0.78418 7.79492 2.41504c14.2246 9.72852 37.416 15.3076 63.6191 15.3076c26.2012 0 49.3916 -5.58008 63.6191 -15.3076
c6.30371 -4.31055 14.9141 -2.69238 19.2266 3.61328c4.30859 6.30664 2.69336 14.9141 -3.61523 19.2266c-25.6221 17.5156 -60.6396 20.1328 -79.2324 20.1328c-18.5938 0 -53.6094 -2.61523 -79.2324 -20.1328zM278.915 255.578
c-6.30469 -4.31152 -7.9248 -12.9199 -3.61426 -19.2266c2.68164 -3.91992 7.01953 -6.02734 11.4346 -6.02734c2.68848 0 5.4082 0.78418 7.79492 2.41504c14.2246 9.72852 37.416 15.3076 63.6191 15.3076c26.2012 0 49.3916 -5.58008 63.6191 -15.3076
c6.30371 -4.31152 14.9141 -2.69336 19.2266 3.61328c4.30859 6.30664 2.69336 14.9141 -3.61523 19.2256c-25.6221 17.5166 -60.6396 20.1338 -79.2324 20.1338c-18.5938 0 -53.6094 -2.61523 -79.2324 -20.1338zM203.456 116.662
c4.30957 6.30664 2.69238 14.9141 -3.61426 19.2207c-25.623 17.5156 -60.6387 20.1328 -79.2334 20.1328c-18.5938 0 -53.6094 -2.6123 -79.2324 -20.1328c-6.30859 -4.30957 -7.92676 -12.917 -3.61523 -19.2246c2.68164 -3.91992 7.01855 -6.02734 11.4346 -6.02734
c2.6875 0 5.40723 0.786133 7.79395 2.41602c14.2256 9.72852 37.417 15.3076 63.6191 15.3076c26.2031 0 49.3926 -5.5791 63.6201 -15.3076c6.30664 -4.30957 14.916 -2.69238 19.2275 3.61523zM203.456 176.507c4.30957 6.30664 2.69238 14.9141 -3.61426 19.2217
c-25.623 17.5166 -60.6387 20.1338 -79.2334 20.1338c-18.5938 0 -53.6094 -2.61523 -79.2324 -20.1338c-6.30859 -4.31055 -7.92676 -12.918 -3.61523 -19.2256c2.68164 -3.91992 7.01855 -6.02734 11.4346 -6.02734c2.6875 0 5.40723 0.786133 7.79395 2.41699
c14.2256 9.72754 37.417 15.3066 63.6191 15.3066c26.2031 0 49.3926 -5.5791 63.6201 -15.3066c6.30664 -4.31055 14.916 -2.69336 19.2275 3.61426zM203.456 236.352c4.30957 6.30664 2.69238 14.915 -3.61426 19.2246c-25.623 17.5166 -60.6387 20.1328 -79.2334 20.1328
c-18.5938 0 -53.6094 -2.61523 -79.2324 -20.1328c-6.30859 -4.31152 -7.92676 -12.9189 -3.61523 -19.2256c2.68164 -3.91992 7.01855 -6.02734 11.4346 -6.02734c2.6875 0 5.40723 0.783203 7.79395 2.41504c14.2266 9.72852 37.417 15.3066 63.6191 15.3066
c26.2031 0 49.3926 -5.5791 63.6201 -15.3066c6.30664 -4.31152 14.916 -2.69336 19.2275 3.61328zM203.456 296.196c4.30957 6.30664 2.69238 14.915 -3.61426 19.2246c-25.623 17.5166 -60.6387 20.1328 -79.2334 20.1328c-18.5938 0 -53.6094 -2.61523 -79.2324 -20.1328
c-6.30859 -4.31152 -7.92676 -12.9189 -3.61523 -19.2256c2.68164 -3.91992 7.01855 -6.02734 11.4346 -6.02734c2.6875 0 5.40723 0.783203 7.79395 2.41504c14.2266 9.72852 37.417 15.3066 63.6191 15.3066c26.2031 0 49.3926 -5.5791 63.6201 -15.3066
c6.30664 -4.31152 14.916 -2.69336 19.2275 3.61328z" />
    <glyph glyph-name="uniF111" unicode="&#xf111;" 
d="M256 448c141.964 0 256 -114.036 256 -256s-114.036 -256 -256 -256s-256 114.036 -256 256s114.036 256 256 256zM395.637 87.2725v23.2734c0 6.98145 -4.65527 11.6357 -11.6367 11.6357h-256c-6.98145 0 -11.6367 -4.6543 -11.6367 -11.6357v-23.2734
c0 -6.98145 4.65527 -11.6357 11.6367 -11.6357h256c6.98145 0 11.6367 4.6543 11.6367 11.6357zM395.637 180.363v23.2734c0 6.98145 -4.65527 11.6357 -11.6367 11.6357h-256c-6.98145 0 -11.6367 -4.6543 -11.6367 -11.6357v-23.2734
c0 -6.98145 4.65527 -11.6357 11.6367 -11.6357h256c6.98145 0 11.6367 4.6543 11.6367 11.6357zM395.637 273.454v23.2734c0 6.98145 -4.65527 11.6357 -11.6367 11.6357h-256c-6.98145 0 -11.6367 -4.6543 -11.6367 -11.6357v-23.2734
c0 -6.98145 4.65527 -11.6357 11.6367 -11.6357h256c6.98145 0 11.6367 4.6543 11.6367 11.6357z" />
    <glyph glyph-name="uniF10B" unicode="&#xf10b;" 
d="M459.105 116.925c-0.0107422 -0.0341797 -0.0146484 -0.0703125 -0.0273438 -0.101562l-2.43555 -6.93945l3.33008 -12.3086c1.70801 -6.30664 -0.975586 -12.3369 -6.10645 -13.7266s-10.4883 2.4668 -12.1963 8.77637l-3.33008 12.3066l-5.60254 4.7666
c-0.0712891 0.0595703 -0.132812 0.129883 -0.200195 0.195312c-17.4043 -4.11621 -35.0781 -6.6748 -52.8633 -8.40723l-2.85449 -5.55371l1.61523 -12.6475c0.828125 -6.48242 -2.65527 -12.0869 -7.92773 -12.7617c-5.27148 -0.673828 -10.0508 3.87793 -10.8799 10.3604
l-1.61621 12.6475l-4.89746 5.48633c-0.106445 0.121094 -0.198242 0.248047 -0.291016 0.376953c-2.87793 -0.179688 -5.75586 -0.348633 -8.63477 -0.507812c-16.4199 -0.899414 -32.8633 -1.52441 -49.3125 -1.87891l-3.58496 -5.2793l0.0664062 -12.748
c0.0361328 -6.53613 -4.10254 -11.6787 -9.41895 -11.7061c-5.31348 -0.0292969 -9.50586 5.07129 -9.54004 11.6045l-0.0673828 12.751l-3.50391 5.04492c-2.80957 -0.00976562 -5.61914 -0.0185547 -8.42871 -0.0146484
c-13.7666 0.0263672 -27.6768 1.70898 -41.2715 4.2832c-69.0537 13.0713 -102.511 -2.9082 -109.161 -2.68262l-3.34961 -4.57129l-0.392578 -12.7451c-0.197266 -6.53125 -4.51855 -11.5195 -9.83203 -11.3564c-5.31152 0.161133 -9.31641 5.4082 -9.11719 11.9395
l0.390625 12.7461l-3.5498 5.52344c-13.7803 1.14551 -27.5146 2.78516 -41.2148 4.77148l-2.9082 -3.43652l-1.2793 -12.6836c-0.655273 -6.50098 -5.31445 -11.1777 -10.6035 -10.6455c-5.28809 0.53418 -8.91699 6.04688 -8.26074 12.5488l1.2793 12.6875
l-3.00391 5.48535c-8.52539 2.70215 -13.6338 8.60645 -16.5596 25.4922c-4.52344 26.1123 -1.27051 137.366 37.6201 151.616c21.4355 7.85352 39.2266 0.738281 43.3828 -2.78418c5.17285 -4.38574 9.25684 -10.0371 13.9502 -15.0068
c9.18848 -9.73633 20.4629 -13.957 33.8301 -12.5205c11.0166 1.18652 22.041 2.29492 34.4561 3.58203c-3.51855 4.84082 -5.9502 7.84668 -8.00195 11.0947c-2.69434 4.26465 -2.55664 8.66895 0.913086 12.4375c16.5283 17.9414 31.3066 55.2168 76.0459 19.0811
c14.2275 -11.4922 35.2217 -28.1738 50.5264 -38.4922c0.170898 -0.115234 0.374023 -0.238281 0.561523 -0.357422c5.39062 1.96777 11.4668 2.16406 17.3096 0.133789l1.9502 -0.675781c5.05859 -1.75879 9.22266 -4.93262 12.2021 -8.92285
c4.81152 1.28418 10.0469 1.19141 15.1055 -0.56543l1.9502 -0.676758c5.05957 -1.75977 9.22266 -4.93164 12.2031 -8.92383c4.81152 1.28613 10.0459 1.19336 15.1055 -0.5625l1.9502 -0.677734c5.05859 -1.75879 9.22266 -4.93262 12.2021 -8.92285
c4.8125 1.28418 10.0469 1.19336 15.1055 -0.5625l1.95117 -0.679688c5.05859 -1.75684 9.22266 -4.92871 12.2021 -8.9209c4.8125 1.28418 10.0469 1.19336 15.1055 -0.56543l1.95117 -0.676758c6.79102 -2.35742 56.3271 -25.668 63.1963 -28.8643
c42.7842 -19.9082 37.1143 -57.3594 -25.2324 -75.6787zM202.587 149.538c18.1191 20.8682 35.4814 41.0293 56.2949 65.2188c0.97168 1.12793 1.34277 2.65527 0.999023 4.10352c-0.34375 1.44922 -1.3623 2.64551 -2.7373 3.21582
c-9.0127 3.74512 -18.124 7.75977 -27.0791 11.9326c-1.88281 0.875977 -4.125 0.396484 -5.48242 -1.18066l-62.5293 -72.5938c-1.10449 -1.28125 -1.4248 -3.06152 -0.836914 -4.64746c0.588867 -1.58496 1.99219 -2.72754 3.66406 -2.97949
c11.25 -1.69336 22.5625 -3.25195 33.624 -4.63379c0.191406 -0.0234375 0.383789 -0.0361328 0.576172 -0.0361328c1.33496 0 2.61914 0.577148 3.50684 1.60059zM266.527 143.661c14.1885 16.3164 28.0674 32.415 42.7598 49.459l3.59961 4.17578
c1.02441 1.18848 1.37988 2.81348 0.946289 4.32129c-0.433594 1.50586 -1.59961 2.69336 -3.09863 3.15332c-9.03809 2.78027 -18.6641 6.09375 -28.6094 9.84961c-1.81445 0.68457 -3.86328 0.172852 -5.13867 -1.28906
c-17.9629 -20.5527 -36.1406 -41.7178 -52.1797 -60.3916c-1.12598 -1.30957 -1.43164 -3.13477 -0.794922 -4.73926s2.1084 -2.72363 3.82617 -2.90723c11.6602 -1.24414 23.376 -2.32617 34.8242 -3.21387c0.120117 -0.00976562 0.240234 -0.0146484 0.360352 -0.0146484
c1.33789 0 2.61914 0.579102 3.50488 1.59668zM370.146 186.099c1.17773 1.31738 1.50879 3.18945 0.847656 4.83008s-2.19434 2.76367 -3.95703 2.89941c-9.47656 0.722656 -20.2549 2.53516 -32.04 5.38672c-1.68359 0.408203 -3.45215 -0.15332 -4.59082 -1.45703
c-5.14453 -5.88574 -10.3154 -11.9062 -15.3184 -17.7295l-27.4287 -31.8975c-1.1543 -1.34082 -1.44531 -3.21973 -0.75293 -4.84863c0.693359 -1.62695 2.25098 -2.71875 4.0166 -2.81836c14.0371 -0.782227 26.8184 -1.15039 35.0703 -1.32031l0.0957031 -0.000976562
c1.32031 0 2.58105 0.5625 3.46387 1.5498z" />
    <glyph glyph-name="uniF107" unicode="&#xf107;" 
d="M256 448c141.382 0 256 -114.611 256 -256s-114.616 -256 -256 -256s-256 114.611 -256 256s114.616 256 256 256zM320.291 192v22.1934h-116.506v-44.3818h68.6318c-9.38184 -28.9443 -36.6016 -49.9316 -68.6318 -49.9316
c-39.7686 0 -72.1221 32.3545 -72.1221 72.1221c0 39.7686 32.3535 72.123 72.1221 72.123c16.0488 0 31.251 -5.16504 43.96 -14.9346l27.0498 35.1865c-20.5361 15.7852 -45.0908 24.1289 -71.0098 24.1289c-64.2422 0 -116.506 -52.2637 -116.506 -116.506
s52.2637 -116.506 116.506 -116.506s116.506 52.2637 116.506 116.506zM442.95 177.492v29.0156h-33.373v33.3779h-29.0215v-33.375h-33.3594v-29.0186h33.3594v-33.3779h29.0215v33.3779h33.373z" />
    <glyph glyph-name="uniF11D" unicode="&#xf11d;" 
d="M302.088 335.963c-30.3408 8.24414 -48.3135 39.6328 -40.0635 69.9629c6.72852 24.7705 29.3359 42.0742 54.9844 42.0742c5.03516 0 10.0752 -0.673828 14.9736 -2.00488c14.6943 -3.99316 26.9531 -13.4688 34.5244 -26.6797
c7.56543 -13.2158 9.53809 -28.584 5.54492 -43.2783c-6.72363 -24.7754 -29.3418 -42.0791 -54.9951 -42.0791c-5.03516 0 -10.0703 0.673828 -14.9688 2.00488zM310.848 139.156c0 -0.0107422 0 -0.015625 -0.00976562 -0.0214844l-49.6709 -182.848
c-3.10449 -11.4277 -13.5586 -19.4082 -25.417 -19.4082c-2.31543 0 -4.625 0.30957 -6.86621 0.919922l-1.77832 0.479492c-14 3.80371 -22.2969 18.2881 -18.4932 32.2822l44.8408 165.065l-10.2959 2.79883l-30.9307 -120.076
c-2.96191 -11.5068 -13.3262 -19.54 -25.1953 -19.54c-2.2998 0 -4.59863 0.304688 -6.83496 0.915039l-1.7832 0.484375c-13.958 3.78809 -22.3818 18.2715 -18.7725 32.2822l34.082 132.304c0.0585938 1.08984 0.22168 2.18359 0.515625 3.27246l22.208 81.749
l-46.0195 -52.7012c-3.54102 -4.05664 -9.3916 -6.57715 -15.2686 -6.57715c-2.64648 0 -5.12402 0.489258 -7.36523 1.46289l-10.8643 4.70312c-4.09375 1.76855 -6.94531 5.03516 -7.82422 8.9502c-0.87793 3.91406 0.305664 8.08105 3.25195 11.4326l98.0684 111.616
c5.02539 5.71875 14.9893 8.77539 22.4346 6.76074l2.91992 -0.789062c0.0263672 -0.00585938 0.046875 -0.00585938 0.0732422 -0.0107422l85.4531 -23.207c5.08203 -1.38379 8.875 -5.125 10.6006 -9.71777c0.0742188 -0.141602 0.173828 -0.273438 0.242188 -0.416016
l25.0068 -54.043c2.74121 -5.91895 4.97656 -15.668 5.08789 -22.1865l0.930664 -53.3691c0.147461 -8.63965 -6.75488 -15.9414 -15.3887 -16.2783l-7.21289 -0.268555c-8.4502 0 -15.4785 6.60254 -16.0049 15.0361l-2.69434 43.5996
c-0.304688 4.9043 -2.80371 12.9014 -5.35059 17.0996l-0.515625 0.852539zM360.577 160.47v0v-0.0322266v0.0322266zM336.991 24.2412c24.3281 0 44.1201 -19.793 44.1201 -44.1211c0 -24.3271 -19.792 -44.1201 -44.1201 -44.1201
c-24.3223 0 -44.1152 19.793 -44.1152 44.1201c0 24.3281 19.7871 44.1211 44.1152 44.1211z" />
    <glyph glyph-name="uniF118" unicode="&#xf118;" 
d="M252.583 447.978c141.356 1.88672 257.503 -111.204 259.395 -252.532c1.88086 -141.368 -111.204 -257.52 -252.55 -259.423c-141.367 -1.88086 -257.508 111.215 -259.4 252.532c-1.88086 141.379 111.183 257.531 252.556 259.423zM251.826 36.1738
c21.5537 0 37.0312 14.7705 37.6543 35.9121c0.628906 22.0664 -14.5479 37.9443 -36.9258 38.6064l-1.2627 0.0224609c-21.0537 0 -36.7754 -15.3047 -37.3818 -36.3857c-0.617188 -21.4482 14.7314 -37.4873 36.502 -38.1328zM343.401 217.929
c9.83984 13.4785 14.8262 28.3096 14.8262 44.0986c0 28.2266 -10.1621 49.8643 -30.1973 64.3115c-19.7725 14.2578 -44.8887 21.4873 -74.6406 21.4873c-22.7285 0 -42.2061 -5.10938 -57.8613 -15.1875c-24.915 -15.8271 -38.3613 -42.9521 -39.9473 -80.623
l-0.111328 -2.65527h61.501v2.54395c0 10.2285 3.0332 20.2402 9.0332 29.7734c5.83203 9.27148 15.582 13.791 29.8232 13.791c14.3584 0 24.2871 -3.72852 29.5127 -11.0918c5.4375 -7.62988 8.18652 -16.2002 8.18652 -25.4668
c0 -6.67773 -2.77148 -13.4727 -9.03223 -22.1045c-2.67676 -3.90723 -6.27246 -7.56348 -10.5352 -10.7744c-1.26367 -0.8125 -31.0205 -19.9736 -44.5107 -35.8125c-8.59863 -10.084 -9.11035 -22.2881 -9.83887 -43.0352l-0.172852 -5.04785h59.6484l0.0214844 2.50977
c0.133789 9.88379 0.884766 11.1699 2.41602 16.0283c1.94238 6.17188 7.11719 12.4434 15.6934 19.1104l15.6221 10.7852c14.1855 11.0527 25.4443 20.085 30.5635 27.3594z" />
    <glyph glyph-name="uniF117" unicode="&#xf117;" 
d="M512 192c0 -74.9385 -32.3682 -142.447 -83.8467 -189.291l0.250977 -0.213867l-8.51758 -7.1123c-0.847656 -0.716797 -1.77832 -1.32227 -2.64355 -2.02051c-3.90137 -3.17383 -7.91309 -6.20898 -12 -9.15039c-1.70312 -1.22852 -3.38867 -2.4668 -5.11035 -3.63965
c-4.78516 -3.27734 -9.70996 -6.3584 -14.7178 -9.30957c-1.35938 -0.800781 -2.71875 -1.58203 -4.08691 -2.35547c-5.50195 -3.09961 -11.1152 -6.01367 -16.8584 -8.71289c-0.708008 -0.334961 -1.4248 -0.642578 -2.13184 -0.967773
c-19.1953 -8.80664 -39.6572 -15.2949 -61.04 -19.1309c-0.577148 -0.111328 -1.16309 -0.213867 -1.74023 -0.316406c-6.6748 -1.14453 -13.4336 -2.04785 -20.2754 -2.67188c-0.866211 -0.0742188 -1.73145 -0.121094 -2.59766 -0.195312
c-6.83301 -0.548828 -13.7119 -0.912109 -20.6846 -0.912109c-7.03809 0 -13.9824 0.363281 -20.8525 0.930664c-0.84668 0.0751953 -1.68457 0.121094 -2.52246 0.195312c-6.89844 0.624023 -13.7129 1.55469 -20.4521 2.71875
c-0.577148 0.102539 -1.14551 0.205078 -1.71289 0.307617c-21.709 3.91895 -42.4678 10.5557 -61.915 19.5947c-0.4375 0.205078 -0.883789 0.391602 -1.32129 0.59668c-5.96777 2.81055 -11.7949 5.87402 -17.501 9.12207
c-1.14551 0.652344 -2.29004 1.30371 -3.42578 1.97363c-5.21387 3.08203 -10.3145 6.33008 -15.2861 9.75586c-1.53613 1.06152 -3.04395 2.15039 -4.55176 3.24023c-4.6543 3.36035 -9.22559 6.83301 -13.6377 10.4912
c-0.540039 0.446289 -1.12695 0.819336 -1.66699 1.27539l-8.30371 7l0.242188 0.213867c-51.0322 46.8252 -83.0928 114.027 -83.0928 188.584c0 141.153 114.847 256 256 256s256 -114.847 256 -256zM18.6182 192c0 -70.0234 30.4971 -133.046 78.8945 -176.537
c2.32715 1.66602 4.6543 3.15527 7 4.43066l73.6074 40.1504c6.6748 3.64844 10.8174 10.6309 10.8174 18.2266v26.9404c-5.73438 7.57812 -21.2529 29.9385 -28.793 59.4766c-7.87598 6.45117 -12.4746 16.0117 -12.4746 26.2607v33.001
c0 8.07031 2.96973 15.8994 8.25781 22.0527v43.4453c-0.484375 4.82227 -2.19727 32.0977 17.5283 54.5889c17.1572 19.5771 44.9258 29.4912 82.5439 29.4912s65.3867 -9.91406 82.5439 -29.501c19.7256 -22.4902 18.0127 -49.7471 17.5283 -54.5879v-43.4453
c5.29688 -6.15332 8.25781 -13.9824 8.25781 -22.0537v-33.001c0 -13.2646 -7.61523 -25.0137 -19.4092 -30.6172c-5.96777 -17.25 -14.1504 -33.2803 -24.3535 -47.6904c-1.99121 -2.80176 -3.91895 -5.35254 -5.74316 -7.60547v-27.5273
c0 -7.90332 4.39355 -15.0156 11.4688 -18.5527l78.8203 -39.4053c2.82031 -1.41504 5.57617 -3.10938 8.3125 -4.99902c49.0029 43.5107 79.9561 106.924 79.9561 177.459c0 130.896 -106.486 237.382 -237.382 237.382s-237.382 -106.486 -237.382 -237.382z" />
    <glyph glyph-name="uniF108" unicode="&#xf108;" 
d="M437.026 10.9736c-99.9648 -99.9648 -262.088 -99.9648 -362.053 0s-99.9648 262.088 0 362.053s262.088 99.9648 362.053 0s99.9648 -262.088 0 -362.053zM109.239 148.854c-0.0537109 -0.490234 0 -68.3682 -0.000976562 -68.3682
c0.0556641 -8.93359 4.03223 -17.9229 10.6777 -24.5684c6.70117 -6.70117 15.6357 -10.7324 24.5693 -10.7871h68.3145c6.48145 0.164062 12.9648 2.56055 17.9219 7.51758l161.96 161.96l32.5225 32.5771c7.08203 7.02734 10.1865 17.3242 8.33496 27.5107
c-1.25293 7.08203 -4.73926 13.6191 -10.0234 18.9033l-65.917 65.917c-5.28418 5.28418 -11.8213 8.71582 -18.9033 10.0234c-10.1328 1.85156 -20.4287 -1.25293 -27.5107 -8.33496l-32.5225 -32.5225l-161.96 -161.96
c-4.95703 -4.95703 -7.2998 -11.3857 -7.46289 -17.8682zM371.654 230.625v0l-77.0293 77.0293l29.9072 29.9082c3.48633 3.43164 9.31543 3.37793 12.8018 -0.109375l63.0293 -63.0293c3.70508 -3.7041 4.14062 -10.9502 0.327148 -14.7627zM229.905 89.6377
l-76.2676 76.377c-0.108398 0.109375 -0.272461 0.21875 -0.380859 0.327148l125.297 125.297l76.9756 -77.085l-125.297 -125.296c-0.109375 0.163086 -0.21875 0.271484 -0.327148 0.379883zM138.33 74.3848c-1.68945 1.68848 -2.99609 4.08594 -2.99707 6.26465
l0.164062 66.8984l76.0498 -75.9951h-66.9521c-2.2334 0 -4.52148 1.08887 -6.26465 2.83203z" />
    <glyph glyph-name="uniF11E" unicode="&#xf11e;" 
d="M404.251 344.165c12.2227 0 22.4951 -9.87402 22.5117 -22.0801v-363.973c0 -12.2227 -10.2578 -22.1123 -22.4961 -22.1123h-296.55c-12.2217 0 -22.4951 9.88965 -22.4951 22.1123v363.957c0 12.2217 10.2734 22.0957 22.4951 22.0957h36.8594v9.58691
c0 18.8682 15.29 34.1582 34.1426 34.1582h16.3125c0.479492 33.3281 27.625 60.0898 60.9531 60.0898s60.4727 -26.7617 60.9365 -60.0898h16.3125c18.8525 0 34.1426 -15.29 34.1426 -34.1582v-9.58691h36.875zM255.984 416.062
c-15.7217 0 -28.5518 -12.542 -29.0303 -28.1514h58.0605c-0.463867 15.6094 -13.3096 28.1514 -29.0303 28.1514zM398.627 -36.9033h-0.015625v354.02h-31.2354v-24.9883h-222.8v24.9883h-31.2354v-354.02h285.286zM359.1 245.252
c11.3115 0 20.4824 -8.41992 20.4824 -19.748s-9.1709 -19.7793 -20.4824 -19.7793h-71.8164c-11.2959 0 -20.499 8.45117 -20.499 19.7793s9.20312 19.748 20.499 19.748h71.8164zM183.433 226.494l37.418 37.4346c4.74512 4.74512 12.4297 4.74512 17.1748 0
l5.38477 -5.38477c2.28418 -2.26855 3.5625 -5.36816 3.5625 -8.5957c0 -3.22656 -1.27832 -6.31055 -3.5625 -8.59473l-47.1162 -47.1172c-5.84766 -5.84668 -15.1465 -6.39062 -21.6328 -1.26172l-26.8896 21.2178c-1.99707 1.56543 -3.24316 3.89844 -3.4668 6.43848
c-0.208008 2.55664 0.638672 5.06445 2.33203 6.9502l8.88379 9.8418c3.22754 3.5791 8.69141 4.07422 12.4941 1.08594zM359.1 153.639c11.3115 0 20.4824 -8.46777 20.4824 -19.7793c0 -11.2959 -9.1709 -19.7793 -20.4824 -19.7793h-71.8164
c-11.2959 0 -20.499 8.4834 -20.499 19.7793c0 11.3281 9.20312 19.7793 20.499 19.7793h71.8164zM183.433 134.882l37.4502 37.4346c4.74512 4.74512 12.4297 4.74512 17.1748 0l5.38477 -5.38477c2.28418 -2.26855 3.5625 -5.39941 3.5625 -8.59473
c0 -3.22754 -1.27832 -6.31152 -3.5625 -8.5957l-47.1328 -47.1162c-5.84766 -5.83203 -15.1455 -6.3916 -21.6484 -1.27832l-26.8896 21.2168c-1.99707 1.5498 -3.24316 3.91504 -3.4668 6.43945c-0.208008 2.55566 0.638672 5.08008 2.33203 6.94922l8.88379 9.84277
c3.22754 3.5625 8.69141 4.07324 12.4941 1.10156zM359.1 65.1426c11.3115 0 20.4824 -8.45215 20.4824 -19.7793c0 -11.3281 -9.1709 -19.7803 -20.4824 -19.7803h-71.8164c-11.2959 0 -20.499 8.45215 -20.499 19.7803c0 11.3271 9.20312 19.7793 20.499 19.7793h71.8164z
M183.433 46.3857l37.4336 37.4336c2.28516 2.30078 5.36816 3.5791 8.5957 3.5791s6.31152 -1.27832 8.5957 -3.5791l5.38477 -5.38379c4.74512 -4.77734 4.74512 -12.4141 0 -17.1758l-47.1328 -47.1318c-5.84766 -5.83203 -15.1455 -6.39062 -21.6484 -1.27832
l-26.8896 21.249c-1.99707 1.5498 -3.25879 3.88281 -3.4668 6.42285c-0.223633 2.57227 0.638672 5.06543 2.33203 6.96582l8.88379 9.82617c3.22754 3.5791 8.69141 4.08984 12.4941 1.08691z" />
    <glyph glyph-name="uniF116" unicode="&#xf116;" 
d="M318.375 361.723l104.152 -104.151l-263.639 -263.639l-104.093 104.151zM501.559 386.842c13.9229 -13.9229 13.9229 -36.376 0 -50.2988l-51.8984 -51.8984l-104.152 104.152l44.4932 44.4922c18.0107 17.9512 47.1592 17.9512 65.1094 0zM0.290039 -48.3086
l26.3047 118.191l104.094 -104.151l-116.061 -28.1396c-8.53125 -2.0752 -16.2334 5.56836 -14.3379 14.0996z" />
    <glyph glyph-name="uniF113" unicode="&#xf113;" 
d="M72.3086 422.535l0.00683594 -259.534c-0.000976562 0.00195312 -0.00488281 0.00195312 -0.00683594 0.00292969v-201.539c0 -14.0635 -11.4004 -25.4648 -25.4639 -25.4648s-25.4648 11.4014 -25.4648 25.4648v461.07c0 14.0635 11.4014 25.4648 25.4648 25.4648
s25.4639 -11.4014 25.4639 -25.4648zM410.631 308.592c24.3252 -32.8848 48.6523 -70.1328 72.9775 -114.098c3.6709 -6.66016 4.32617 -13.457 1.68945 -17.415c-2.63672 -3.97168 -8.10742 -4.59668 -14.1006 -2.05859
c-122.772 52.3154 -245.549 -56.2246 -368.324 -23.2988v255.103c122.592 -32.9043 245.144 75.1689 367.807 23.5234c6.02637 -2.53613 32.8936 -14.6299 12.2871 -31.2139c-23.3779 -18.8164 -48.1416 -42.3984 -72.2119 -71.1533
c-4.50781 -5.41699 -4.55859 -13.4277 -0.124023 -19.3887z" />
    <glyph glyph-name="uniF121" unicode="&#xf121;" 
d="M256 448c141.168 0 256 -114.842 256 -256c0 -141.147 -114.853 -256 -256 -256c-141.158 0 -256 114.853 -256 256c0 141.158 114.842 256 256 256zM370.203 250.592c11.5176 8.28027 21.5098 18.6641 29.3672 30.4609
c-10.5273 -4.69238 -21.9121 -7.84766 -33.8428 -9.27051c12.1992 7.30078 21.5107 18.8398 25.9443 32.6055c-11.415 -6.77441 -23.9951 -11.6621 -37.4316 -14.3018c-10.7656 11.4453 -26.0576 18.6016 -43.0107 18.6016c-32.5332 0 -58.9111 -26.3877 -58.9111 -58.9209
c0 -4.62988 0.505859 -9.11523 1.5166 -13.4365c-48.9609 2.47461 -92.3936 25.9238 -121.442 61.582c-5.07324 -8.70312 -7.9707 -18.8291 -7.9707 -29.6357c0 -20.4385 10.4043 -38.4834 26.2021 -49.0322c-9.65137 0.298828 -18.7363 2.95898 -26.6768 7.3623
c-0.00976562 -0.237305 -0.00976562 -0.495117 -0.00976562 -0.742188c0 -28.5645 20.3037 -52.374 47.2588 -57.7773c-4.93945 -1.35059 -10.1572 -2.05176 -15.5303 -2.05176c-3.78418 0 -7.48633 0.380859 -11.0742 1.06152
c7.49609 -23.418 29.2646 -40.4531 55.0439 -40.9268c-20.1699 -15.7979 -45.5674 -25.2227 -73.1826 -25.2227c-4.75391 0 -9.44531 0.27832 -14.0547 0.825195c26.0684 -16.7266 57.0449 -26.4502 90.3203 -26.4502c108.408 0 167.659 89.7539 167.659 167.618
c0 2.55664 -0.0615234 5.11426 -0.174805 7.65137z" />
    <glyph glyph-name="uniF10F" unicode="&#xf10f;" 
d="M358.637 330.926v-0.420898h-50.042v49.208c0 7.08984 -5.42188 12.5107 -12.5107 12.5107h-199.335l112.178 -57.5488c7.92383 -4.16992 13.3447 -12.9277 13.3447 -22.1016v-2.50293v-81.3184v-128.442h73.8125c7.08887 0 12.5107 5.42188 12.5107 12.5107v99.251
h50.042v-136.782c0 -13.7666 -11.2549 -25.0215 -25.0215 -25.0215h-111.761v-95.9141c0 -9.5957 -10.0088 -15.4297 -18.3486 -11.2598l-190.161 98.4209c-7.92383 4.16992 -13.3447 12.9277 -13.3447 22.0977v11.2637v326.109v16.2637
c0 13.7617 11.2598 25.0215 25.0215 25.0215h308.594c13.7666 0 25.0215 -11.2598 25.0215 -25.0215v-86.3232zM422.857 371.798l81.3193 -81.3184c10.4258 -10.4258 10.4258 -25.8555 0 -36.2812l-81.3193 -81.3184
c-10.4248 -10.4258 -26.2764 -10.8467 -36.7012 -0.421875c-10.0049 10.0049 -8.75781 26.6895 0.837891 36.6982l36.6934 36.2803h-142.199c-7.08496 0 -14.1787 2.91992 -18.7656 8.34082c-11.6768 12.5107 -8.75781 34.6123 6.25488 42.9531
c3.75293 2.08496 8.34082 3.33594 12.5107 3.33594h142.204s-36.2773 36.2803 -36.6943 36.2803c-9.5957 9.5918 -10.8467 26.6895 -0.837891 36.2812c10.0088 10.0088 26.2725 9.5957 36.6973 -0.830078z" />
    <glyph glyph-name="uniF119" unicode="&#xf119;" 
d="M398.223 448l113.777 -113.777v-341.334c0 -31.2891 -25.5996 -56.8887 -56.8887 -56.8887h-398.223c-31.2891 0 -56.8887 25.5996 -56.8887 56.8887v398.223c0 31.2891 25.5996 56.8887 56.8887 56.8887h341.334zM256 -7.11133c48.3555 0 85.333 36.9775 85.333 85.334
c0 48.3555 -36.9775 85.333 -85.333 85.333s-85.333 -36.9775 -85.333 -85.333c0 -48.3564 36.9775 -85.334 85.333 -85.334zM341.333 277.333v113.778h-284.444v-113.778h284.444z" />
    <glyph glyph-name="uniF120" unicode="&#xf120;" 
d="M503.382 340.925c5.74316 -5.74707 8.61621 -12.7246 8.62012 -20.9258v-39.3838c0 -14.5625 -4.25684 -29.2295 -12.7686 -44c-8.51172 -14.7686 -19.9971 -28.1016 -34.4619 -39.998c-14.457 -11.8984 -32.208 -21.8994 -53.2266 -30.0029
c-21.0322 -8.10156 -43.127 -12.668 -66.3184 -13.6895c-8.60742 -11.0752 -18.3516 -20.8193 -29.2246 -29.2285c-7.78809 -6.97852 -13.1729 -14.4043 -16.1533 -22.3125c-2.97266 -7.89258 -4.45508 -17.0684 -4.45508 -27.5361
c0 -11.0791 3.12012 -20.4092 9.375 -27.9922c6.24707 -7.59668 16.2529 -11.3887 29.9912 -11.3887c15.3867 0 29.0762 -4.66895 41.0781 -14c12.0088 -9.34082 18.0049 -21.0791 18.0049 -35.2354v-19.6875c0 -2.87598 -0.922852 -5.23633 -2.75879 -7.08008
c-1.85156 -1.84375 -4.2041 -2.76562 -7.08203 -2.76562h-256.002c-2.87305 0 -5.23047 0.921875 -7.07715 2.76562s-2.76758 4.2041 -2.76758 7.08008v19.6875c0 14.1553 6.00098 25.8975 18 35.2354c12.001 9.33105 25.6914 14 41.0771 14
c13.7432 0 23.7441 3.79102 29.9971 11.3887c6.25977 7.58301 9.38477 16.9141 9.38477 27.9922c0 10.4639 -1.4873 19.6436 -4.45996 27.5361c-2.97559 7.9082 -8.35645 15.3389 -16.1533 22.3125c-10.8721 8.40625 -20.6123 18.1455 -29.2295 29.2285
c-23.1816 1.02148 -45.2822 5.58691 -66.3096 13.6895c-21.0273 8.10352 -38.7705 18.1045 -53.2305 30.0029c-14.4648 11.8926 -25.9502 25.2295 -34.4619 39.998c-8.51367 14.7705 -12.7695 29.4385 -12.7695 44v39.3838c0 8.20508 2.87012 15.1807 8.61523 20.9248
s12.7188 8.61426 20.9229 8.61426h88.6172v29.5371c0 13.5391 4.81836 25.126 14.4609 34.7676c9.64062 9.6416 21.2324 14.46 34.7705 14.46h177.229c13.5361 0 25.1309 -4.81934 34.7715 -14.46c9.64453 -9.64258 14.457 -21.2295 14.457 -34.7676v-29.5361h88.6172
c8.20605 0 15.1777 -2.87305 20.9199 -8.61426zM68.4609 230.772c19.3867 -17.2295 43.542 -28.8242 72.4609 -34.7705c-15.1807 33.2295 -22.7676 71.2793 -22.7676 114.154h-78.7686v-29.5381c0 -16 9.69043 -32.6162 29.0752 -49.8457zM472.612 280.615v29.5381h-78.7666
c0 -42.876 -7.58594 -80.9258 -22.7666 -114.155c28.918 5.94727 53.0723 17.5391 72.4639 34.7676c19.3848 17.2285 29.0693 33.8486 29.0693 49.8496z" />
    <glyph glyph-name="uniF11A" unicode="&#xf11a;" 
d="M304.475 331.494c-5.90625 -2.78906 -11.8506 -5.90527 -17.3076 -9.5625c-0.261719 -0.102539 -0.513672 -0.189453 -0.775391 -0.291016c3.19141 2.79395 6.64941 5.36719 10.1426 7.73926c4.66602 3.16895 9.35254 6.37402 14.2637 9.15723
c10.3711 5.875 20.8516 11.5508 31.7852 16.332c16.126 7.05273 32.6621 13.3799 49.5732 18.293c8.51562 2.47266 17.0176 4.8418 25.6279 6.96289c8.25977 2.03418 16.5449 3.79199 24.8779 5.49121c-1.05469 -0.213867 -2.21875 -0.451172 0.49707 0.102539
c0.723633 0.146484 0.56543 0.114258 0.132812 0.0253906c7.49707 1.51367 15.0293 2.73926 22.5762 3.97656c4.6875 0.767578 10.2588 2.53809 14.8984 0.755859c5.67773 -2.18457 8.94922 -8.43848 7.4707 -14.3477
c-1.34082 -5.36523 -6.13477 -9.01953 -11.5928 -9.24512c-6.76758 -0.28125 -13.5322 -0.577148 -20.2988 -0.842773c-8.51367 -0.332031 -17.0215 -1.22559 -25.5156 -1.90527c-8.64258 -1.0498 -17.3076 -1.96777 -25.9023 -3.36816
c-8.74414 -1.42578 -17.416 -3.00293 -26.0947 -4.77734c-8.68262 -1.77637 -17.3184 -3.94727 -25.8242 -6.43066c-8.4209 -2.45801 -16.8643 -4.96387 -25.0518 -8.13574c-7.94434 -3.08008 -15.7754 -6.29297 -23.4824 -9.92969zM286.342 335.343
c-6.04102 -4.54102 -12.1738 -9.46289 -17.3398 -15.0068c-0.525391 -0.525391 -1.00781 -1.08008 -1.48633 -1.64844c2.48926 3.82715 5.6543 7.24805 8.7041 10.6318c3.75586 4.16406 7.77832 8.07031 11.8115 11.9629c8.40625 8.11133 17.5762 15.3926 26.8809 22.4346
c11.7246 8.87305 24.2246 16.7607 37.0273 23.9756c15.5254 8.75 31.6777 16.6416 48.3271 23.0205c7.92578 3.03809 15.834 5.98926 23.8984 8.63867c3.2832 1.07715 6.56543 2.15625 9.84766 3.23145c1.97168 0.650391 3.88672 1.27637 6.00391 1.21484
c6.49707 -0.18457 11.8379 -5.66406 11.8545 -12.1689c0.0146484 -6.02832 -4.39844 -10.9277 -10.2061 -12.0674c-14.9443 -2.93555 -29.9639 -5.75098 -44.5576 -10.1807c-16.9453 -5.14258 -33.8457 -10.6963 -49.917 -18.2119
c-13.5791 -6.35059 -26.9131 -13.0713 -39.5791 -21.1191c-7.29492 -4.63574 -14.3604 -9.51465 -21.2695 -14.707zM208.832 333.818c5.78516 -3.6416 11.5771 -7.63379 16.7402 -12.168c-0.263672 0.103516 -0.519531 0.191406 -0.78418 0.296875
c-6.22754 4.0752 -12.9062 7.50195 -19.6338 10.6543c-7.72852 3.50977 -15.5156 6.81934 -23.498 9.71582c-16.6455 6.03711 -33.832 10.6719 -51.1719 14.2207c-8.60352 1.75977 -17.2266 3.21875 -25.8926 4.63281c-8.60742 1.4043 -17.4189 2.48145 -26.1143 3.17773
c-8.43945 0.675781 -16.8682 1.44141 -25.3262 1.79297c-6.01758 0.253906 -12.0352 0.500977 -18.0527 0.750977c-7.82617 0.323242 -13.4219 8.16895 -11.1865 15.6787c1.04492 3.50586 3.68945 6.41602 7.07324 7.80176
c2.73438 1.12012 5.45215 0.931641 8.2832 0.467773c16.0039 -2.61914 32.1074 -5.09277 47.8672 -8.97461c8.47852 -2.08887 16.9473 -4.13672 25.334 -6.56934c8.58691 -2.49219 17.0566 -5.20996 25.5381 -8.03711c8.30664 -2.76855 16.4736 -6.04883 24.5322 -9.46582
c8.06836 -3.4209 16.1299 -6.97852 23.8662 -11.1084c7.62109 -4.07031 15.1123 -8.25977 22.4258 -12.8672zM69.9746 399.633c-8.45215 1.66113 -12.5908 11.7627 -7.70508 18.8721c2.26172 3.29297 6.10156 5.31445 10.0977 5.29785
c2.94727 -0.0126953 5.86719 -1.30273 8.62695 -2.20703c7.61328 -2.49902 15.2227 -4.93945 22.7061 -7.80859c8.2998 -3.18262 16.4775 -6.4873 24.6025 -10.0957c16.5186 -7.33594 32.3926 -15.9297 47.7012 -25.5293c12.291 -7.70605 23.9189 -16.2715 35.1094 -25.4941
c6.65527 -5.48438 13.1426 -11.3066 19.1328 -17.5176c4.98438 -5.16309 10.3105 -10.418 14.2393 -16.4619c-0.918945 1.09277 -1.91016 2.11426 -2.93457 3.10645c-11.9912 11.6211 -25.8311 21.1309 -39.916 30.0049c-5.12891 3.23047 -10.4609 6.2168 -15.832 9.02734
c-7.8584 4.1084 -15.7627 8.2041 -23.9297 11.6738c-16.2979 6.92188 -32.8857 12.9111 -49.9189 17.7734c-13.7988 3.93848 -27.9141 6.5957 -41.9795 9.3584zM500.251 346.691c6.55371 -0.229492 11.749 -5.61035 11.749 -12.167v-295.206
c0 -6.0166 -4.39355 -11.1309 -10.3418 -12.0371c-76.0742 -11.5938 -148.144 -38.5586 -189.268 -56.0107v352.117c41.915 10.417 107.636 23.5723 172.256 23.5723c5.27637 0 10.5273 -0.0878906 15.6045 -0.268555zM291.925 322.433l2.34766 1.1123v-0.03125v-352.244
c-0.496094 -1.83105 -9.2168 -11.0723 -38.2725 -11.0723c-29.0547 0 -37.7764 9.24316 -38.2725 11.0742l0.00195312 116.966c0.000976562 67.918 0.00390625 171.012 -0.00195312 235.279v0.0292969l2.34766 -1.11328c13.0566 -5.86914 24.4688 -8.60156 35.9248 -8.60156
s22.8682 2.73145 35.9248 8.60156zM11.749 346.691c5.07715 0.179688 10.3281 0.268555 15.6035 0.269531c64.6201 0 130.343 -13.1562 172.258 -23.5703c0.00488281 -74.1123 0.00488281 -164.201 0.00292969 -242.414l-0.00292969 -109.704
c-41.125 17.4521 -113.192 44.4189 -189.269 56.0117c-5.94824 0.90625 -10.3418 6.02051 -10.3418 12.0371v295.203c0 6.55664 5.19336 11.9375 11.749 12.167z" />
    <glyph glyph-name="uniF101" unicode="&#xf101;" 
d="M511.924 198.067c0.046875 -2.01758 0.0761719 -4.03906 0.0761719 -6.06836c0 -1.81543 -0.0283203 -3.62402 -0.0683594 -5.42969c-0.0175781 -0.8125 -0.0390625 -1.62402 -0.0634766 -2.43652c-0.0214844 -0.697266 -0.0507812 -1.39062 -0.078125 -2.08496
c-1.63184 -42.6543 -13.6787 -82.6396 -33.7012 -117.464l-0.00195312 -0.00390625c-0.015625 -0.0263672 -0.03125 -0.0537109 -0.0478516 -0.0800781c-0.945312 -1.64062 -1.9082 -3.26855 -2.88867 -4.88672c-0.327148 -0.540039 -0.664062 -1.07422 -0.995117 -1.6123
c-0.678711 -1.10059 -1.36035 -2.19922 -2.05371 -3.28906c-0.399414 -0.62793 -0.804688 -1.25098 -1.20996 -1.87402c-0.645508 -0.996094 -1.29688 -1.98828 -1.95605 -2.97363c-0.431641 -0.645508 -0.866211 -1.28906 -1.30273 -1.93066
c-0.662109 -0.96875 -1.3291 -1.93066 -2.00293 -2.88867c-0.44043 -0.625977 -0.876953 -1.25195 -1.32227 -1.87305c-0.722656 -1.00977 -1.45898 -2.01074 -2.19629 -3.01074c-0.404297 -0.548828 -0.803711 -1.10352 -1.21387 -1.64941
c-1.11816 -1.49023 -2.25 -2.96973 -3.40039 -4.43457c-0.344727 -0.439453 -0.701172 -0.871094 -1.04883 -1.30957c-0.834961 -1.04883 -1.67188 -2.0957 -2.52246 -3.13086c-0.533203 -0.650391 -1.07617 -1.29102 -1.61621 -1.93457
c-0.678711 -0.810547 -1.35938 -1.61914 -2.04883 -2.42188c-0.59668 -0.693359 -1.19824 -1.38086 -1.7998 -2.06738c-0.645508 -0.736328 -1.29492 -1.46875 -1.94922 -2.19727c-0.638672 -0.709961 -1.2793 -1.41895 -1.92578 -2.12207
c-0.62793 -0.682617 -1.26172 -1.36133 -1.89746 -2.03809c-0.676758 -0.722656 -1.35449 -1.44531 -2.04102 -2.16016c-0.601562 -0.625977 -1.20996 -1.24219 -1.81738 -1.86133c-0.731445 -0.746094 -1.45801 -1.49609 -2.19824 -2.23242
c-0.256836 -0.255859 -0.518555 -0.504883 -0.776367 -0.758789c-1.85156 -1.82715 -3.7334 -3.62598 -5.63965 -5.39648c-0.461914 -0.429688 -0.920898 -0.863281 -1.38574 -1.29004c-0.883789 -0.810547 -1.7793 -1.60645 -2.67578 -2.40527
c-0.498047 -0.443359 -0.996094 -0.889648 -1.49805 -1.33008c-0.911133 -0.797852 -1.83008 -1.58789 -2.75293 -2.37402c-0.483398 -0.412109 -0.969727 -0.823242 -1.45703 -1.23145c-0.958984 -0.805664 -1.92383 -1.60547 -2.89551 -2.39746
c-0.424805 -0.344727 -0.850586 -0.685547 -1.27637 -1.02734c-1.04785 -0.842773 -2.10059 -1.68359 -3.16309 -2.51172c-0.204102 -0.158203 -0.411133 -0.313477 -0.615234 -0.470703c-3.94336 -3.05078 -7.97656 -5.98926 -12.0967 -8.80957
c-0.0517578 -0.0361328 -0.103516 -0.0712891 -0.154297 -0.106445c-1.27148 -0.869141 -2.55469 -1.72168 -3.8418 -2.56738c-0.258789 -0.170898 -0.515625 -0.34082 -0.773438 -0.509766c-1.25293 -0.817383 -2.5127 -1.62109 -3.78027 -2.41602
c-0.267578 -0.168945 -0.537109 -0.336914 -0.806641 -0.503906c-1.30566 -0.811523 -2.61719 -1.61328 -3.9375 -2.40234c-0.154297 -0.0927734 -0.310547 -0.183594 -0.464844 -0.275391c-7.375 -4.38477 -14.9883 -8.4082 -22.8154 -12.0488
c-0.126953 -0.0585938 -0.25293 -0.118164 -0.379883 -0.176758c-1.48828 -0.689453 -2.98438 -1.36328 -4.4873 -2.02539c-0.155273 -0.0673828 -0.3125 -0.136719 -0.467773 -0.204102c-1.53613 -0.671875 -3.0791 -1.33203 -4.62891 -1.97461l-0.0078125 -0.00292969
c-30.1484 -12.4824 -63.1924 -19.3848 -97.8535 -19.3848c-35.1338 0 -68.6113 7.08301 -99.0928 19.8926c-0.00292969 0.000976562 -0.00488281 0.00195312 -0.0078125 0.00292969c-0.928711 0.391602 -1.84863 0.796875 -2.77246 1.19824
c-0.791016 0.34375 -1.58203 0.68457 -2.36914 1.03613c-0.93457 0.416016 -1.86035 0.84082 -2.78809 1.26855c-0.765625 0.351562 -1.53027 0.708984 -2.29199 1.07031c-0.926758 0.438477 -1.85449 0.878906 -2.77637 1.33008
c-0.746094 0.363281 -1.48633 0.735352 -2.22754 1.10645c-3.36621 1.68262 -6.6875 3.43652 -9.96777 5.26172c-0.668945 0.37207 -1.33594 0.742188 -2.00195 1.11914c-0.941406 0.536133 -1.87793 1.08008 -2.8125 1.62695
c-0.643555 0.375977 -1.28613 0.755859 -1.92578 1.1377c-0.949219 0.566406 -1.89648 1.13574 -2.83789 1.71484c-0.574219 0.352539 -1.14258 0.711914 -1.71387 1.06934c-3.3916 2.12305 -6.73145 4.32227 -10.0156 6.59668
c-0.46582 0.323242 -0.933594 0.644531 -1.39648 0.96875c-0.987305 0.694336 -1.9668 1.39746 -2.94434 2.10449c-0.473633 0.34375 -0.946289 0.6875 -1.41699 1.03516c-0.999023 0.732422 -1.99414 1.46875 -2.98047 2.21582
c-0.34668 0.262695 -0.69043 0.529297 -1.03516 0.793945c-3.45801 2.64453 -6.8457 5.37402 -10.1602 8.18652c-0.240234 0.205078 -0.484375 0.408203 -0.723633 0.614258c-1.03906 0.886719 -2.06738 1.78418 -3.0918 2.68848
c-0.289062 0.255859 -0.578125 0.511719 -0.865234 0.768555c-1.04785 0.933594 -2.08984 1.87207 -3.12207 2.82324c-0.112305 0.102539 -0.22168 0.206055 -0.332031 0.308594c-3.48633 3.22168 -6.88281 6.53809 -10.1865 9.94629
c-0.0439453 0.0458984 -0.0888672 0.0908203 -0.131836 0.136719c-1.06348 1.09863 -2.11426 2.20898 -3.1582 3.32617c-0.126953 0.136719 -0.254883 0.273438 -0.382812 0.410156c-5.48926 5.90625 -10.7012 12.0713 -15.6201 18.4756
c-0.0263672 0.0351562 -0.0546875 0.0703125 -0.0810547 0.106445c-4.9707 6.47852 -9.63574 13.2002 -13.9795 20.1465c-0.00195312 0.00390625 -0.00488281 0.0078125 -0.0078125 0.0126953c-22.9209 36.666 -36.8125 79.5498 -38.5723 125.549
c-0.0273438 0.694336 -0.0566406 1.38867 -0.078125 2.08496c-0.0253906 0.811523 -0.0458984 1.62402 -0.0634766 2.43652c-0.0400391 1.80566 -0.0683594 3.61426 -0.0683594 5.42969c0 2.02832 0.0292969 4.0498 0.0761719 6.06641
c0.015625 0.637695 0.0400391 1.27148 0.0595703 1.90723c0.0429688 1.39746 0.09375 2.79199 0.158203 4.18262c0.0341797 0.71875 0.0703125 1.4375 0.110352 2.15527c0.0742188 1.35156 0.161133 2.69922 0.255859 4.04492
c0.0478516 0.676758 0.0927734 1.35352 0.147461 2.02734c0.126953 1.62012 0.271484 3.2334 0.429688 4.84277c0.0361328 0.371094 0.0654297 0.744141 0.103516 1.11523c0.201172 1.96484 0.426758 3.92188 0.671875 5.87207
c0.0722656 0.574219 0.154297 1.14355 0.229492 1.71484c0.185547 1.39453 0.376953 2.78516 0.583984 4.17188c0.105469 0.709961 0.217773 1.41699 0.329102 2.12598c0.201172 1.27246 0.411133 2.54199 0.630859 3.80859
c0.123047 0.705078 0.245117 1.41211 0.37207 2.11621c0.251953 1.38086 0.517578 2.75488 0.791016 4.12793c0.111328 0.550781 0.213867 1.10449 0.327148 1.6543c0.387695 1.88184 0.795898 3.75586 1.22363 5.62402c0.116211 0.5 0.241211 0.996094 0.358398 1.49707
c0.329102 1.39062 0.666016 2.77832 1.0166 4.16016c0.178711 0.708008 0.366211 1.41113 0.551758 2.11621c0.311523 1.18457 0.631836 2.36719 0.959961 3.5459c0.203125 0.732422 0.40918 1.46289 0.619141 2.19043c0.347656 1.20703 0.707031 2.41016 1.07324 3.60938
c0.198242 0.654297 0.393555 1.30957 0.597656 1.96094c0.558594 1.78613 1.13379 3.56543 1.73145 5.33496c0.130859 0.387695 0.271484 0.770508 0.404297 1.1582c0.488281 1.41992 0.984375 2.83594 1.49512 4.24609c0.255859 0.704102 0.520508 1.40137 0.78125 2.10156
c0.410156 1.09863 0.825195 2.19238 1.24805 3.2832c0.291992 0.746094 0.583984 1.49023 0.880859 2.2334c0.426758 1.06543 0.862305 2.12793 1.30273 3.1875c0.296875 0.712891 0.589844 1.42676 0.892578 2.13672c0.535156 1.25684 1.08594 2.50586 1.64062 3.75293
c0.230469 0.516602 0.454102 1.03809 0.688477 1.55469c0.735352 1.62207 1.49121 3.23438 2.25977 4.83984c0.332031 0.69043 0.671875 1.37402 1.00879 2.06055c0.496094 1.01367 0.996094 2.02539 1.50586 3.03223c0.378906 0.746094 0.761719 1.48926 1.14746 2.22949
c0.494141 0.954102 0.995117 1.9043 1.50195 2.84961c0.392578 0.733398 0.785156 1.4668 1.18359 2.19629c0.557617 1.0166 1.12598 2.02637 1.69727 3.03418c0.357422 0.633789 0.709961 1.27051 1.07324 1.90137c0.889648 1.54102 1.79395 3.06934 2.71387 4.58984
c0.395508 0.654297 0.801758 1.2998 1.2041 1.95117c0.585938 0.947266 1.17188 1.89355 1.76953 2.83301c0.458984 0.722656 0.924805 1.43848 1.38965 2.15625c0.564453 0.867188 1.13281 1.73145 1.70605 2.59082c0.479492 0.717773 0.958984 1.43457 1.44629 2.14844
c0.602539 0.883789 1.21484 1.76074 1.82812 2.6377c0.461914 0.660156 0.921875 1.3252 1.39062 1.98047c0.991211 1.38867 1.99609 2.7666 3.01562 4.13379c29.0918 39.0488 69.0586 69.5068 115.413 86.9209c0.0996094 0.0380859 0.200195 0.0771484 0.301758 0.115234
c1.69824 0.635742 3.40527 1.25098 5.12012 1.85059c0.209961 0.0732422 0.417969 0.148438 0.626953 0.220703c1.63086 0.566406 3.27148 1.11328 4.91797 1.64746c0.299805 0.0986328 0.599609 0.196289 0.900391 0.292969
c1.57422 0.50293 3.1543 0.991211 4.74219 1.46484c0.383789 0.114258 0.767578 0.230469 1.15332 0.34375c1.51953 0.446289 3.04395 0.87793 4.57324 1.2959c0.46582 0.126953 0.932617 0.253906 1.39844 0.37793c1.4668 0.391602 2.9375 0.771484 4.41406 1.1377
c0.542969 0.134766 1.08887 0.267578 1.63281 0.399414c1.41406 0.34082 2.83398 0.671875 4.25684 0.989258c0.617188 0.137695 1.23633 0.271484 1.85547 0.404297c1.36621 0.293945 2.73535 0.580078 4.10742 0.852539
c0.693359 0.136719 1.3877 0.266602 2.08301 0.399414c1.31348 0.248047 2.62695 0.492188 3.94727 0.720703c0.771484 0.133789 1.5459 0.256836 2.31738 0.383789c1.25879 0.206055 2.5166 0.40918 3.78125 0.597656c0.849609 0.125 1.7041 0.239258 2.55664 0.357422
c1.20117 0.165039 2.40234 0.332031 3.60938 0.481445c0.931641 0.116211 1.86816 0.21582 2.80273 0.321289c1.14062 0.126953 2.2793 0.259766 3.4248 0.373047c1.02539 0.101562 2.05957 0.185547 3.08984 0.274414c1.06445 0.0917969 2.12695 0.191406 3.19531 0.270508
c1.15137 0.0849609 2.30859 0.149414 3.46387 0.219727c0.958984 0.0585938 1.91602 0.126953 2.87891 0.174805c1.35254 0.0664062 2.71094 0.108398 4.06836 0.154297c0.77832 0.0263672 1.55273 0.0644531 2.33301 0.0849609
c2.14453 0.0527344 4.29395 0.0810547 6.4502 0.0810547s4.30566 -0.0283203 6.45117 -0.0820312c0.779297 -0.0195312 1.55371 -0.0585938 2.33008 -0.0849609c1.35742 -0.0458984 2.71777 -0.0878906 4.07129 -0.155273
c0.960938 -0.0478516 1.91602 -0.115234 2.87402 -0.173828c1.15723 -0.0703125 2.31641 -0.133789 3.46875 -0.219727c1.06738 -0.0791016 2.12695 -0.178711 3.18945 -0.270508c1.0332 -0.0898438 2.06836 -0.172852 3.09668 -0.274414
c1.14258 -0.113281 2.27832 -0.245117 3.41504 -0.37207c0.938477 -0.105469 1.87891 -0.206055 2.81445 -0.322266c1.20312 -0.148438 2.40039 -0.31543 3.59863 -0.480469c0.855469 -0.119141 1.71289 -0.232422 2.56738 -0.359375
c1.25977 -0.1875 2.51465 -0.389648 3.76855 -0.595703c0.777344 -0.12793 1.55566 -0.251953 2.33008 -0.386719c1.31543 -0.227539 2.62598 -0.470703 3.93359 -0.71875c0.700195 -0.132812 1.40039 -0.264648 2.09863 -0.402344
c1.36914 -0.271484 2.73047 -0.556641 4.0918 -0.849609c0.625 -0.135742 1.25 -0.269531 1.87305 -0.408203c1.41797 -0.31543 2.8291 -0.646484 4.2373 -0.985352c0.552734 -0.133789 1.10645 -0.267578 1.65723 -0.404297
c1.46777 -0.364258 2.92969 -0.742188 4.3877 -1.13086c0.476562 -0.12793 0.952148 -0.255859 1.42578 -0.386719c1.52051 -0.416016 3.03711 -0.84375 4.5459 -1.28711c0.395508 -0.116211 0.791992 -0.235352 1.18945 -0.353516
c1.57422 -0.470703 3.14355 -0.954102 4.70508 -1.45312c0.314453 -0.101562 0.628906 -0.205078 0.943359 -0.307617c1.63086 -0.52832 3.25586 -1.07031 4.87207 -1.63184c0.227539 -0.0791016 0.456055 -0.161133 0.683594 -0.240234
c1.69434 -0.59375 3.38281 -1.2002 5.06152 -1.8291c0.125977 -0.046875 0.251953 -0.0957031 0.378906 -0.143555c1.77051 -0.666016 3.5332 -1.34766 5.28418 -2.05176l0.00683594 -0.00195312c44.0234 -17.6807 82.002 -47.2295 109.96 -84.7012v0
c1.06152 -1.42285 2.10645 -2.86035 3.13965 -4.30469c0.443359 -0.621094 0.876953 -1.24902 1.31543 -1.875c0.639648 -0.912109 1.27539 -1.8252 1.90332 -2.74609c0.47168 -0.691406 0.938477 -1.3877 1.40332 -2.08398
c0.59082 -0.884766 1.1748 -1.77246 1.75391 -2.66504c0.453125 -0.695312 0.90332 -1.39062 1.34961 -2.0918c0.620117 -0.973633 1.22754 -1.95508 1.83496 -2.93848c0.380859 -0.617188 0.768555 -1.23047 1.14453 -1.85254
c0.926758 -1.53027 1.83789 -3.07031 2.7334 -4.62207c0.349609 -0.607422 0.688477 -1.22168 1.0332 -1.83203c0.583008 -1.03027 1.16504 -2.06152 1.73438 -3.10156c0.392578 -0.717773 0.779297 -1.44043 1.16504 -2.16113
c0.513672 -0.960938 1.02246 -1.92285 1.52441 -2.89062c0.379883 -0.731445 0.757812 -1.46289 1.13086 -2.19824c0.515625 -1.01953 1.02246 -2.04492 1.52637 -3.07227c0.330078 -0.674805 0.666016 -1.34668 0.990234 -2.02637
c0.78125 -1.62793 1.54688 -3.26367 2.29297 -4.91113c0.220703 -0.485352 0.430664 -0.977539 0.647461 -1.46582c0.560547 -1.25586 1.11426 -2.51367 1.6543 -3.78027c0.300781 -0.707031 0.594727 -1.41797 0.889648 -2.12793
c0.441406 -1.06348 0.87793 -2.12793 1.30566 -3.19629c0.296875 -0.741211 0.59082 -1.48438 0.878906 -2.22949c0.424805 -1.0918 0.839844 -2.1875 1.25098 -3.28711c0.259766 -0.699219 0.523438 -1.39551 0.77832 -2.09668
c0.513672 -1.41309 1.01074 -2.83301 1.49902 -4.25586c0.131836 -0.385742 0.271484 -0.766602 0.401367 -1.15039c0.597656 -1.76855 1.17285 -3.54785 1.73145 -5.33398c0.204102 -0.651367 0.399414 -1.30859 0.597656 -1.96387
c0.366211 -1.2002 0.726562 -2.40234 1.07422 -3.61035c0.208984 -0.728516 0.415039 -1.45703 0.618164 -2.1875c0.328125 -1.17676 0.647461 -2.3584 0.958984 -3.54297c0.185547 -0.707031 0.374023 -1.41406 0.554688 -2.12402
c0.348633 -1.37695 0.683594 -2.75977 1.01074 -4.14648c0.119141 -0.501953 0.24707 -1.00391 0.362305 -1.50879c0.427734 -1.86523 0.835938 -3.73828 1.22363 -5.61914c0.113281 -0.551758 0.216797 -1.10742 0.327148 -1.66113
c0.272461 -1.37109 0.539062 -2.74414 0.789062 -4.12207c0.12793 -0.704102 0.25 -1.41211 0.37207 -2.11816c0.219727 -1.26465 0.430664 -2.53223 0.630859 -3.80273c0.111328 -0.709961 0.223633 -1.4209 0.330078 -2.13379
c0.208008 -1.38184 0.397461 -2.76855 0.583008 -4.1582c0.0761719 -0.576172 0.15918 -1.14941 0.230469 -1.72656c0.246094 -1.9502 0.47168 -3.90625 0.671875 -5.87012c0.0380859 -0.371094 0.0683594 -0.744141 0.103516 -1.11426
c0.158203 -1.61035 0.302734 -3.22363 0.429688 -4.84375c0.0546875 -0.674805 0.0996094 -1.35059 0.147461 -2.02734c0.0947266 -1.3457 0.181641 -2.69336 0.255859 -4.04395c0.0400391 -0.71875 0.0761719 -1.4375 0.110352 -2.15625
c0.0644531 -1.3916 0.115234 -2.78516 0.158203 -4.18262c0.0195312 -0.634766 0.0439453 -1.27051 0.0595703 -1.90723zM266.449 367.954v-70.7646l97.1768 -70.6006l67.1904 22.0596l22.5439 71.1807c-8.94238 13.7832 -19.334 26.6299 -31.1172 38.4141
c-21.5977 21.5986 -46.7432 38.5518 -74.7373 50.3926c-5.42578 2.2959 -10.916 4.37793 -16.4639 6.24805zM89.7578 358.243c-11.7832 -11.7842 -22.1738 -24.6318 -31.1172 -38.416l22.6504 -71.5156l66.5645 -22.1016l97.6953 70.9795v70.7646l-64.5918 46.9297
c-5.5498 -1.87012 -11.04 -3.9541 -16.4648 -6.24805c-27.9941 -11.8408 -53.1387 -28.7939 -74.7363 -50.3926zM130.847 41.917l48.293 48.2939l-37.7305 116.121l-66.6045 22.1152l-53.8799 -38.5371c0.266602 -31.0068 6.45703 -61.0801 18.4414 -89.4141
c7.31738 -17.3047 16.5977 -33.5156 27.7129 -48.4775zM357.751 -20.0107l8.62695 54.4648l-44.7656 44.7646h-123.91l-52.0781 -52.0771l7.37012 -46.5332c3.7793 -1.8418 7.60938 -3.59668 11.501 -5.24316c28.9697 -12.2539 59.7578 -18.4668 91.5049 -18.4668
c31.748 0 62.5352 6.21289 91.5059 18.4668c3.45996 1.46387 6.87305 3.00586 10.2451 4.62402zM472.635 100.495c11.9844 28.333 18.1748 58.4062 18.4414 89.416l-54.1699 38.7441l-66.1123 -21.7061l-36.1367 -111.219l46.4951 -46.4971l69.6211 11.0264
c8.55566 12.6221 15.8662 26.0625 21.8613 40.2354z" />
    <glyph glyph-name="uniF115" unicode="&#xf115;" 
d="M286.579 -0.194336l70.0381 99.46v-139.916c0 -12.5908 -9.72754 -23.3379 -22.3301 -23.3379h-296.845c-12.5801 0 -22.7773 10.7354 -22.7773 23.3379v391.299c0 12.5908 10.1855 22.7764 22.7773 22.7764h55.8877v-43.7549
c0 -20.6455 16.3037 -36.9951 36.9727 -36.9951h111.204c20.623 0 37.5107 16.3379 37.5107 36.9951v43.7549h55.293c12.5684 0 22.3184 -10.1738 22.3184 -22.7764v-76.6836l-72.2266 -103.562l-192.607 -0.493164c-9.2002 0 -16.6582 -7.58398 -16.6582 -16.7842
s7.45801 -16.7852 16.6582 -16.7852h168.856l-30.8428 -44.0527h-138.014c-9.2002 0 -16.6582 -7.58496 -16.6582 -16.7969c0 -9.17676 7.45801 -16.7617 16.6582 -16.7617h114.022l-1.17969 -1.69531c-3.84961 -5.4541 -5.67188 -12.2363 -5.00684 -19.0078
l2.80664 -33.0078c0.699219 -8.37598 5.12109 -16.1094 12.168 -21.0127c4.7998 -3.37988 10.4941 -5.17871 16.3838 -5.17871c2.6123 0 5.20117 0.366211 7.70996 1.07715l31.9658 8.73047c6.42773 1.77539 12.0645 5.72852 15.9141 11.1709zM91.7949 247.545
c-9.2002 0 -16.6582 -7.57324 -16.6582 -16.7734s7.45801 -16.7852 16.6582 -16.7852h188.174c9.17676 0 16.6475 7.58496 16.6475 16.7852s-7.4707 16.7734 -16.6475 16.7734h-188.174zM130.612 314.684c-8.43262 0 -15.25 6.83984 -15.25 15.2725v63.8857
c0 8.43262 6.81738 15.2607 15.25 15.2607h16.1543c0.125977 21.4941 17.5645 38.8975 39.1035 38.8975c21.5283 0 38.9893 -17.415 39.1035 -38.8975h16.7393c8.40918 0 15.25 -6.82812 15.25 -15.2607v-63.8965c0 -8.43262 -6.84082 -15.2617 -15.25 -15.2617h-111.101z
M185.882 426.334c-9.57812 0 -17.3467 -7.69922 -17.4609 -17.2422h34.8877c-0.103516 9.54297 -7.86035 17.2422 -17.4268 17.2422zM497.175 345.137c0.492188 -2.81836 -0.161133 -5.7168 -1.78809 -8.06543l-197.075 -282.558l-45.5195 31.748l197.053 282.569
c2.07324 3.0127 5.45312 4.61719 8.84473 4.61719c2.13086 0 4.29688 -0.630859 6.17578 -1.94824l27.8184 -19.3857c2.35938 -1.64941 3.97559 -4.13574 4.49121 -6.97754zM221.754 40.123c-0.160156 1.50098 0.241211 3.00195 1.08887 4.22754l12.0645 17.3008
l45.5537 -31.7598l-12.0645 -17.2998c-0.870117 -1.22656 -2.13086 -2.12012 -3.58594 -2.52051l-32.1377 -8.7998c-0.549805 -0.160156 -1.12207 -0.240234 -1.68359 -0.240234c-1.2832 0 -2.57812 0.435547 -3.67773 1.19141
c-1.54688 1.09961 -2.56641 2.80664 -2.7041 4.7207z" />
    <glyph glyph-name="uniF112" unicode="&#xf112;" 
d="M21.9424 334.629c-12.0684 0 -21.9424 9.87402 -21.9424 21.9434c0 12.0684 9.87402 21.9424 21.9424 21.9424h468.115c12.0684 0 21.9424 -9.87402 21.9424 -21.9424c0 -12.0693 -9.87402 -21.9434 -21.9424 -21.9434h-468.115zM21.9424 170.058
c-12.0684 0 -21.9424 9.87402 -21.9424 21.9434c0 12.0684 9.87402 21.9424 21.9424 21.9424h468.115c12.0684 0 21.9424 -9.87402 21.9424 -21.9424c0 -12.0693 -9.87402 -21.9434 -21.9424 -21.9434h-468.115zM21.9424 5.48633
c-12.0684 0 -21.9424 9.87402 -21.9424 21.9434c0 12.0684 9.87402 21.9424 21.9424 21.9424h468.115c12.0684 0 21.9424 -9.87402 21.9424 -21.9424c0 -12.0693 -9.87402 -21.9434 -21.9424 -21.9434h-468.115z" />
    <glyph glyph-name="uniF10A" unicode="&#xf10a;" 
d="M256 448c141.168 0 256 -114.842 256 -256c0 -141.147 -114.853 -256 -256 -256c-141.158 0 -256 114.853 -256 256c0 141.158 114.842 256 256 256zM319.665 182.987l5.39258 52.4561h-47.0215v30.832c0 11.5908 7.68262 14.292 13.0859 14.292h33.1934v50.9307
l-45.7324 0.174805c-50.7344 0 -62.2832 -37.9785 -62.2832 -62.2832v-33.9355h-29.3369v-52.4668h29.3369v-148.448h61.7158v148.448h41.6494z" />
    <glyph glyph-name="uniF10C" unicode="&#xf10c;" 
d="M460.796 368c28.2822 0 51.2041 -22.5146 51.2041 -50.2822v-251.436c0 -27.7656 -22.9219 -50.2822 -51.2041 -50.2822h-409.609c-28.2646 0 -51.1865 22.5166 -51.1865 50.2822v251.436c0 27.7676 22.9219 50.2822 51.1865 50.2822h409.609zM96.001 268.797v-25.5938
c0 -34.5625 35.7969 -51.2021 47.9521 -51.2021c12.8281 0 47.9531 16.6396 47.9531 51.2021v25.5938c0 34.5469 -25.3438 51.2031 -47.9531 51.2031c-21.8584 0 -47.9521 -16.6562 -47.9521 -51.2031zM239.998 96c0.0332031 0.25 0 15.7188 0 16.001
c0 17.5762 -6.4668 44.8896 -36.4053 61.5479c-13.8428 7.70117 -26.6553 -4.87793 -43.5928 -19.7979l-4.62598 -4.62695v0.00878906s-5 -5.13281 -11.2324 -5.13281c-6.1416 0 -11.2979 4.92188 -11.4531 5.07812l-4.67383 4.67285
c-16.9385 14.9219 -31.8271 27.75 -43.5938 19.7979c-28.3896 -19.1875 -36.4062 -43.9697 -36.4062 -61.5479c0 -0.282227 -0.0322266 -15.751 0 -16.001c0 -23.2197 7.81348 -32 32.001 -32h127.984c24.1865 0 31.998 8.78027 31.998 32zM448 96
c8.84277 0 15.999 7.16504 15.998 16.001c0 8.83594 -7.15527 16 -15.998 16h-144c-8.84277 0 -15.998 -7.16406 -15.998 -16s7.15527 -16.001 15.998 -16.001h144zM448 176c8.84277 0 15.999 7.16504 15.998 16.001c0 8.83594 -7.15527 16 -15.998 16h-144
c-8.84277 0 -15.998 -7.16406 -15.998 -16c0 -8.83789 7.15527 -16.001 15.998 -16.001h144zM448 255.999c8.84277 0 15.999 7.16602 15.998 16.002c0 8.83496 -7.15527 15.999 -15.998 15.999h-144c-8.84277 0 -15.998 -7.16406 -15.998 -15.999
c0 -8.83594 7.15527 -16.002 15.998 -16.002h144z" />
    <glyph glyph-name="uniF11C" unicode="&#xf11c;" 
d="M343.106 394.076c0 28.7545 14.377 43.1318 43.1309 43.1318s43.1309 -14.3773 43.1309 -43.1318c0 -28.7539 -14.377 -43.1309 -43.1309 -43.1309s-43.1309 14.377 -43.1309 43.1309zM28.4023 91.999c-6.5472 -0.106941 -12.4372 1.86987 -17.6699 5.93042
c-5.23274 4.06055 -8.5804 9.34774 -10.043 15.8616c-1.68275 7.53635 -0.496206 14.522 3.55964 20.9568c4.05585 6.435 9.83838 10.493 17.3476 12.174c2.38579 0.505692 4.74354 0.725418 7.07324 0.65918l99.9512 -0.257812l147.797 171.374l-38.6504 0.179688
l-67.1221 -77.5254c-4.33603 -5.29688 -9.91904 -7.94531 -16.749 -7.94531c-5.99742 0 -11.1208 2.12321 -15.3701 6.36966c-4.24933 4.24643 -6.37399 9.36018 -6.37399 15.3413c0 6.50174 2.45085 11.9288 7.35254 16.2812l72.3184 83.2568
c4.35754 5.27408 9.94446 7.91113 16.7607 7.91113h104.768c7.63971 0 14.1986 -2.66699 19.6768 -8.00098l66.7842 -66.7637l55.334 55.2559c4.1799 3.52344 8.98459 5.28516 14.4141 5.28516c6.2001 0 11.4888 -2.19583 15.866 -6.58752
c4.38101 -4.39169 6.57153 -9.6825 6.57153 -15.8724c0 -5.32724 -1.68359 -10.0613 -5.05078 -14.2021l-66.7646 -67.2227c-6.00549 -5.99913 -12.2064 -9.09679 -18.6026 -9.293c-6.39627 -0.196198 -10.6819 0.468536 -12.8569 1.9942
c-2.18121 1.52565 -3.87796 2.92734 -5.09027 4.20505l-40.9297 41.1865l-64.0264 -74.0283l58.6416 -58.6406l2.93695 -3.81065c1.95798 -2.54044 3.33344 -6.35167 4.1264 -11.4337s0.222687 -11.4352 -1.71082 -19.0594l-32.9189 -146.524
c-1.3139 -6.40932 -4.52606 -11.7214 -9.63647 -15.9364s-11.0086 -6.32241 -17.6946 -6.32241c-7.69638 0 -14.2689 2.72276 -19.7176 8.16828s-8.17303 12.0193 -8.17303 19.7214c0 2.3876 0.290375 4.73786 0.871094 7.05078l27.0195 120.12l-66.6309 64.8203
l-57.2881 -63.9043l-2.99762 -2.83908c-1.99841 -1.89272 -5.82184 -3.72092 -11.4703 -5.48459c-5.64842 -1.76368 -12.1227 -2.51646 -19.4227 -2.25836zM384.538 1.50195c0 36.4648 18.2324 54.6973 54.6973 54.6973s54.6973 -18.2324 54.6973 -54.6973
c0 -36.4642 -18.2324 -54.6963 -54.6973 -54.6963s-54.6973 18.2321 -54.6973 54.6963z" />
    <glyph glyph-name="uniF102" unicode="&#xf102;" 
d="M256 350.804c-20.0996 0 -36.3936 16.2939 -36.3936 36.3936c0 8.13965 2.67285 15.6543 7.18848 21.7168l29.2051 39.0859l29.2051 -39.0879c4.51562 -6.06055 7.18848 -13.5762 7.18848 -21.7168c0 -20.0996 -16.2939 -36.3916 -36.3936 -36.3916zM115.46 188.308
c-11.4072 0 -16.2461 4.07227 -24.2607 10.8213c-9.40234 7.91406 -22.2773 18.752 -46.001 18.752v16.8799c0 24.7559 20.2549 45.0107 45.0107 45.0107h148.912v39.3398c5.40918 -1.3418 11.0605 -2.06641 16.8789 -2.06641s11.4697 0.724609 16.8789 2.06641v-39.3398
h148.911c24.7559 0 45.0107 -20.2549 45.0107 -45.0107v-16.8799c-23.7256 0 -36.6025 -10.8379 -46.0059 -18.751c-8.01758 -6.74805 -12.8555 -10.8223 -24.2676 -10.8223c-11.4102 0 -16.25 4.07422 -24.2676 10.8223c-9.40234 7.91309 -22.2793 18.751 -46.0059 18.751
c-23.7236 0 -36.6006 -10.8379 -46.002 -18.752c-8.0166 -6.74902 -12.8555 -10.8213 -24.2617 -10.8213c-11.4092 0 -16.248 4.07227 -24.2646 10.8213c-9.40137 7.91406 -22.2783 18.752 -46.002 18.752c-23.7246 0 -36.6016 -10.8379 -46.002 -18.752
c-8.0166 -6.74902 -12.8545 -10.8213 -24.2617 -10.8213zM466.803 184.123l-0.00195312 -101.837h-421.604v101.837c11.4062 0 16.2451 -4.07227 24.2607 -10.8203c9.40137 -7.91406 22.2764 -18.7529 46.001 -18.7529s36.6006 10.8389 46.002 18.7529
c8.0166 6.74805 12.8555 10.8203 24.2627 10.8203s16.2461 -4.07227 24.2627 -10.8203c9.40137 -7.91406 22.2783 -18.7529 46.0039 -18.7529c23.7236 0 36.5996 10.8389 46.001 18.7529c8.0166 6.74805 12.8555 10.8203 24.2627 10.8203
c11.4111 0 16.25 -4.07324 24.2676 -10.8213c9.40332 -7.91309 22.2793 -18.752 46.0059 -18.752s36.6045 10.8389 46.0068 18.752c8.01758 6.74805 12.8574 10.8213 24.2686 10.8213zM0 48.5273h512v-33.7578h-46.2578l-22.1611 -78.7695h-376.816l-22.626 78.7695
h-44.1387v33.7578z" />
  </font>
</defs>
</svg>
